<?xml version="1.0" encoding="utf-8"?>
<!-- Generator: Adobe Illustrator 26.0.1, SVG Export Plug-In . SVG Version: 6.00 Build 0)  -->
<svg version="1.1" id="圖層_1" xmlns="http://www.w3.org/2000/svg" xmlns:xlink="http://www.w3.org/1999/xlink" x="0px" y="0px"
	 viewBox="0 0 57 70" style="enable-background:new 0 0 57 70;" xml:space="preserve">
<style type="text/css">
	.st0{fill:url(#SVGID_1_);}
	.st1{fill:#FFFFFF;}
</style>
<linearGradient id="SVGID_1_" gradientUnits="userSpaceOnUse" x1="20.2789" y1="65.0855" x2="71.6141" y2="12.3241">
	<stop  offset="0" style="stop-color:#F3B9FF"/>
	<stop  offset="6.520000e-02" style="stop-color:#E5BFFF"/>
	<stop  offset="0.1395" style="stop-color:#C9CBFF"/>
	<stop  offset="0.2128" style="stop-color:#C6D2FF"/>
	<stop  offset="0.2767" style="stop-color:#BDEDFF"/>
	<stop  offset="0.3435" style="stop-color:#BBFCFC"/>
	<stop  offset="0.4088" style="stop-color:#BBFFF4"/>
	<stop  offset="0.4805" style="stop-color:#C1FFDF"/>
	<stop  offset="0.5531" style="stop-color:#D0FFC5"/>
	<stop  offset="0.6238" style="stop-color:#DFFFC1"/>
	<stop  offset="0.7085" style="stop-color:#FDFCBB"/>
	<stop  offset="0.7776" style="stop-color:#FFE5BF"/>
	<stop  offset="0.8501" style="stop-color:#FFC8C9"/>
	<stop  offset="0.9278" style="stop-color:#FFBDEB"/>
	<stop  offset="1" style="stop-color:#E6C0FF"/>
</linearGradient>
<path class="st0" d="M11.8,69.8v-11H9.6v-1.6c0.5-0.1,0.9-0.2,1.2-0.3c0.3-0.1,0.6-0.3,0.9-0.6c0.3-0.3,0.6-0.6,1-1.1h1.6v14.6H11.8
	L11.8,69.8z M28.5,60.1v5c0,1.5-0.4,2.7-1.3,3.6s-2,1.3-3.5,1.3s-2.7-0.4-3.5-1.3c-0.9-0.9-1.3-2.1-1.3-3.6v-5
	c0-1.5,0.4-2.7,1.3-3.6s2-1.3,3.5-1.3c1.5,0,2.7,0.5,3.5,1.3C28.1,57.4,28.5,58.6,28.5,60.1z M23.7,67.7c0.7,0,1.2-0.2,1.6-0.6
	c0.4-0.4,0.6-1.2,0.6-2.3v-4.4c0-1.1-0.2-1.8-0.5-2.2c-0.4-0.4-0.9-0.7-1.7-0.7c-0.8,0-1.4,0.2-1.7,0.7c-0.3,0.5-0.5,1.2-0.5,2.2
	v4.4c0,0.7,0.1,1.2,0.2,1.6c0.1,0.4,0.3,0.7,0.6,0.9C22.7,67.6,23.1,67.7,23.7,67.7z M39.6,60.1v5c0,1.5-0.4,2.7-1.3,3.6
	c-0.9,0.9-2,1.3-3.5,1.3s-2.7-0.4-3.5-1.3c-0.9-0.9-1.3-2.1-1.3-3.6v-5c0-1.5,0.4-2.7,1.3-3.6c0.8-0.9,2-1.3,3.6-1.3
	s2.7,0.5,3.5,1.3C39.2,57.4,39.6,58.6,39.6,60.1z M34.8,67.7c0.7,0,1.2-0.2,1.6-0.6c0.4-0.4,0.6-1.2,0.6-2.3v-4.4
	c0-1.1-0.2-1.8-0.5-2.2c-0.4-0.4-0.9-0.7-1.7-0.7c-0.8,0-1.4,0.2-1.7,0.7c-0.3,0.5-0.5,1.2-0.5,2.2v4.4c0,0.7,0.1,1.2,0.2,1.6
	c0.1,0.4,0.3,0.7,0.6,0.9C33.7,67.6,34.2,67.7,34.8,67.7z M43.2,66.9l1.1-5.4h1.5l1.1,5.4h0l1.1-5.4h1.5l-1.8,8.2h-1.5l-1.2-5.6h0
	l-1.2,5.6h-1.5l-1.7-8.2h1.5L43.2,66.9L43.2,66.9z M51.5,0.1l-7.8,18.6l5.3-0.2L56.7,0L51.5,0.1z M37.1,42.3L47.4,34l-1.9,0.1
	L37.1,42.3z M41,34.1l1.9-0.1l11-15.6L52,18.5L41,34.1z"/>
<path class="st1" d="M25.1,44.2H7.8c-0.6,0-1.2-0.5-1.2-1.2c0-0.6,0.5-1.2,1.2-1.2h17.3c0.6,0,1.1,0.5,1.1,1.2S25.7,44.2,25.1,44.2
	 M27,48.8c3.1,0,5.7-2.6,5.7-5.8s-2.6-5.8-5.7-5.8H5.9c-3.2,0-5.7,2.6-5.7,5.8s2.6,5.8,5.7,5.8H27 M27,39.6c1.9,0,3.4,1.5,3.4,3.5
	c0,1.9-1.5,3.5-3.4,3.5H5.9c-1.9,0-3.4-1.5-3.4-3.5c0-1.9,1.5-3.5,3.4-3.5H27z M55.4,20.8l-1.3,1.9h0.2c0.2,0,0.5,0.2,0.5,0.5v22.3
	c0,0.2-0.2,0.5-0.5,0.5H35.3v1.8h20.1c0.8,0,1.4-0.6,1.4-1.4V22.2C56.8,21.4,56.2,20.8,55.4,20.8z M34.4,20.8h-2H15.7
	c-0.8,0-1.4,0.6-1.4,1.4v11.7h1.9V23.1c0-0.2,0.2-0.5,0.5-0.5h14.6h2.6L34.4,20.8z M36,22.7l8.7,0.3l-5.3,10.6l-3.2-2.4l1.2,11.2
	l8.4-8.3l-4.5,0.1l11-15.7L44,18.7L51.9,0l-8.4,0.2L36,22.7z"/>
</svg>
