<?xml version="1.0" encoding="utf-8"?>
<!-- Generator: Adobe Illustrator 26.0.1, SVG Export Plug-In . SVG Version: 6.00 Build 0)  -->
<svg version="1.1" id="icon" xmlns="http://www.w3.org/2000/svg" xmlns:xlink="http://www.w3.org/1999/xlink" x="0px" y="0px"
	 viewBox="0 0 166.4 104" style="enable-background:new 0 0 166.4 104;" xml:space="preserve">
<style type="text/css">
	.st0{fill-rule:evenodd;clip-rule:evenodd;fill:#FFFFFF;}
</style>
<g>
	<path class="st0" d="M74.6,12.1c27.7-0.6,38.2,14.2,55.1,24.2c3.9,2.3,8.5,3.9,13.5,5.1c3.5,0.4,6.9,0.7,10.4,1.1
		c-3.8,0.2-8.5,1-12.5,0.3c-17.1-2.9-25.4-13-38.4-19.7c-10-5.2-24.4-7.7-36.4-2.5c-4.7,2-9.7,5.5-12.7,9.3c-1.1,1.5-2.3,3-3.4,4.5
		c0-0.1,0-0.2,0-0.3c-1.5-1.2-5.2-4.9-5.4-6.7c1.6-1.7,3.2-3.3,4.8-5c3-2.4,6.4-4.9,10.1-6.5c3-1.3,6.2-2.3,9.6-3.1
		C70.9,12.6,72.8,12.4,74.6,12.1z"/>
	<path class="st0" d="M79.2,21.4c26.9-0.4,35.4,18.1,55.9,24.5c4.6,1.4,11.7,2.5,17.7,1.4c2.2-0.5,4.3-0.9,6.5-1.4
		c0,0.1,0,0.1,0,0.2c-1.9,0.7-3.8,1.3-5.7,2c-6.1,1.8-15,2-21.2,0.2c-7.9-2.4-14.6-6.1-20.9-10.1c-4.8-3-9-6.7-14.6-9
		c-6.3-2.6-16.3-3.3-23.1-0.6c-2.8,1.1-5.1,2.8-7.3,4.5c-3.6,2.8-6.2,6.4-8.2,10.7c-0.3-0.2-0.5-0.4-0.8-0.6c-1.1-2.2-4.5-4-4.8-6.3
		c0.9-1.3,1.9-2.6,2.8-3.9c2.8-3.5,7.3-6.6,11.6-8.5c2.8-0.8,5.6-1.7,8.4-2.5C76.7,21.7,78,21.6,79.2,21.4z"/>
	<path class="st0" d="M83.5,30.4c9.7-0.1,15.7,4.2,21.7,7.9c8.3,5.1,15.8,10.6,25.7,14.1c4,1.4,9.9,2.8,15.5,1.9
		c7-1.1,12.3-3.6,18.3-5.4c-0.1,0.1-0.1,0.2-0.2,0.3c-5.5,2.3-9.1,5.5-16.3,7.1c-15.8,3.6-31.7-5.6-40.9-11.3
		c-4.9-3.1-9.5-6.8-16-8.4c-13.2-3.2-23.3,8-21.5,20.3c-3-3.4-6-6.7-9-10.1c2.9-7.3,8.3-12.7,16-15.2C79.1,31.2,81.3,30.8,83.5,30.4
		z"/>
	<path class="st0" d="M26.9,49.4c0.9,0.1,1.3,0.4,1.9,0.8c0.1,0.6,0.2,1.1,0.3,1.7c-0.5,1-0.9,1.5-2.3,1.5c-0.4-0.3-0.8-0.5-1.2-0.8
		c-0.1-0.6-0.2-1.1-0.3-1.7C25.6,50,26,50,26.9,49.4z"/>
	<path class="st0" d="M17.9,50.1c0.5,0.1,0.9,0.1,1.4,0.2c0.2,0.2,0.3,0.4,0.5,0.6c0.3,0.4,0.4,0.9,0.2,1.4
		c-0.3,0.7-0.6,0.8-1.2,1.1c-1-0.1-1.4-0.3-1.7-1.1c-0.1-0.3-0.1-0.6-0.2-0.9C17.2,50.9,17.5,50.5,17.9,50.1z"/>
	<path class="st0" d="M92.5,51c4.6-0.2,8,4.1,5.1,8.1c-0.8,1.1-2.4,1.6-3.6,2.3c0.4,6.8-0.9,6.2-6.5,7.3c-1.1,2.8-5.2,6.7-8.1,2.8
		c-3.2-4.4,1.5-7.1,5.3-7c0.4-1.2,0.7-2.4,1.1-3.6c1-0.7,2-1.3,2.9-2c-0.1-0.9-0.1-1.8-0.2-2.6C88.6,52.9,90.4,52.2,92.5,51z"/>
	<path class="st0" d="M34.9,51.3c0.6,0.1,1.1,0.1,1.7,0.2c0.8,0.7,1.2,1,1.2,2.6c-0.3,0.5-0.5,0.9-0.8,1.4c-0.6,0.1-1.1,0.2-1.7,0.3
		c-0.9-0.1-1.1-0.4-1.7-0.8c-0.2-0.8-0.3-1.6-0.2-2.5C34,52.1,34.5,51.7,34.9,51.3z"/>
	<path class="st0" d="M9.7,52.4c0.5,0.2,0.9,0.4,1.4,0.6c0.1,0.4,0.1,0.7,0.2,1.1c-0.4,0.6-0.5,0.8-1.5,0.9
		c-0.6-0.3-0.7-0.6-1.1-1.1C8.8,53,9,52.9,9.7,52.4z"/>
	<path class="st0" d="M43,54.9c1.5,0.1,2.4,0.7,2.8,1.9c0.3,0.7,0,1.7-0.2,2.3c-0.9,0.7-1.9,1.6-3.3,0.9C39.3,58.9,41,55.8,43,54.9z
		"/>
	<path class="st0" d="M23.5,56.4c1,0,1.3,0.2,1.7,0.8c0.3,0.4,0.4,0.9,0.2,1.4c-0.3,0.6-0.4,0.7-0.9,0.9c-0.4,0-0.7,0-1.1,0
		c-0.3-0.3-0.6-0.6-0.9-0.9c0.1-0.6,0.2-1.1,0.3-1.7C22.9,56.7,23.2,56.6,23.5,56.4z"/>
	<path class="st0" d="M1.8,56.7c0.4,0.1,0.7,0.1,1.1,0.2C2.9,57,3,57.2,3,57.3c0.1,0.6,0.1,0.7-0.5,1.1c-0.3,0.1-0.5,0.1-0.8,0.2
		c-0.2-0.2-0.3-0.3-0.5-0.5c0-0.3,0-0.6,0-0.9C1.5,57,1.6,56.9,1.8,56.7z"/>
	<path class="st0" d="M14.8,56.9c1.1,0,1.9,0.7,1.5,1.5c-0.1,0.3-0.2,0.5-0.3,0.8c-0.3,0.1-0.6,0.2-0.9,0.3
		c-0.6-0.3-0.8-0.3-1.1-0.9c0-0.3,0-0.5,0-0.8C14.3,57.5,14.5,57.2,14.8,56.9z"/>
	<path class="st0" d="M32.4,57.8c1.3,0.4,1.9,0.8,2,2.3c-0.4,0.7-0.5,1-1.2,1.4c-0.6,0-1.1,0-1.7,0c-0.3-0.4-0.5-0.7-0.8-1.1
		c-0.2-0.9,0-1.3,0.3-2C31.5,58.2,32,58,32.4,57.8z"/>
	<path class="st0" d="M50.1,59.2c1.7,0,2.2,0.4,3.1,1.1c0.5,1.4,0.6,2.1,0.2,3.6c-0.8,0.7-1.6,1.5-2.9,1.2
		C46.4,64.7,47.9,60.4,50.1,59.2z"/>
	<path class="st0" d="M6.6,59.4c0.8,0.3,0.9,0.4,1.1,1.2c-0.2,0.2-0.3,0.4-0.5,0.6C5.6,61.5,5.5,60.1,6.6,59.4z"/>
	<path class="st0" d="M100,60.9c7.8-0.3,7.4,8.5,0.2,9.8c-0.4,3.2-0.5,7.6-5.3,6.5c-0.9-0.2-1.5-0.8-2.3-0.8
		c1.7,5.4-5.9,6.6-7.7,2.9c-0.5-0.9-0.3-2.4,0-3.3c1.9-4.8,5-1.4,6.7-2.2c-1.3-4.3,2.4-4.9,5-6C96.7,63.4,96.1,62.9,100,60.9z"/>
	<path class="st0" d="M40.2,61.4c1.5,0.3,2,0.7,2.5,2c-0.1,1.9-1.3,2.8-3.3,2.3c-0.8-0.6-1.2-1.1-1.2-2.5c0.3-0.5,0.5-0.9,0.8-1.4
		C39.4,61.7,39.8,61.5,40.2,61.4z"/>
	<path class="st0" d="M20.5,62.3c0.4,0.1,0.7,0.2,1.1,0.3c0.1,0.5,0.2,0.9,0.3,1.4c-0.2,0.3-0.3,0.5-0.5,0.8
		c-0.4,0.1-0.7,0.1-1.1,0.2c-0.2-0.1-0.4-0.2-0.6-0.3c-0.1-0.5-0.2-0.9-0.3-1.4C19.8,62.9,20.2,62.6,20.5,62.3z"/>
	<path class="st0" d="M11.7,62.5c0.7,0.2,0.6,0.1,0.9,0.6c0,0.4,0,0.7,0,1.1c-0.3,0.1-0.5,0.2-0.8,0.3c-0.5-0.2-0.5-0.2-0.8-0.6
		c0-0.4,0-0.7,0-1.1C11.3,62.7,11.5,62.6,11.7,62.5z"/>
	<path class="st0" d="M57.7,62.9c6.1-0.3,4.8,8-0.9,6.2C54.8,66.7,55,64.6,57.7,62.9z"/>
	<path class="st0" d="M28.9,63.8c1,0,1.3,0.3,1.9,0.6c0.1,0.1,0.1,0.2,0.2,0.3c-0.1,0.4-0.1,0.8-0.2,1.2c-0.3,0.3-0.5,0.6-0.8,0.9
		c-0.4-0.1-0.8-0.1-1.2-0.2c-0.3-0.3-0.6-0.5-0.9-0.8c0.1-0.4,0.1-0.8,0.2-1.2C28.2,64.2,28.5,64.2,28.9,63.8z"/>
	<path class="st0" d="M47.5,65.6c2.3,0,3.3,1.4,2.8,3.7c-0.7,1-1.3,1.4-2.9,1.4c-0.8-0.4-1.4-0.8-1.7-1.7
		C44.7,67,46.4,66.2,47.5,65.6z"/>
	<path class="st0" d="M65.6,66.2c5-0.2,5.6,6.3,1.5,7.3C62.4,74.6,60.9,68.4,65.6,66.2z"/>
	<path class="st0" d="M36.8,67.3c0.5,0.1,0.9,0.1,1.4,0.2c0.3,0.4,0.6,0.7,0.9,1.1c0.1,0.4,0.1,0.7,0.2,1.1
		c-0.3,0.6-0.4,0.9-1.1,1.2c-1.5,0.9-2.4-0.5-2.8-1.7c0.1-0.4,0.2-0.7,0.3-1.1C36.1,67.8,36.4,67.5,36.8,67.3z"/>
	<path class="st0" d="M74.1,67.4c5.2,0,5.6,7.1,1.1,8.1C70.3,76.5,68.6,69.7,74.1,67.4z"/>
	<path class="st0" d="M55.2,69.9c1.1,0.2,1.7,0.6,2.5,1.1c0.6,1.8,0.6,2.6-0.5,4.2c-0.7,0.3-1.4,0.7-2.2,0.5c-1-0.1-1.4-0.5-2-0.9
		c-0.3-0.8-0.5-1.4-0.5-2.6C53.2,70.7,53.8,70.6,55.2,69.9z"/>
	<path class="st0" d="M106.6,70.2c4.8-0.2,7.8,4.1,4.8,7.9c-1.1,1.4-4.9,1.3-5.4,2.2c-0.1,0.7-0.1,1.3-0.2,2
		c-0.6,2.1-3.3,4.4-6.2,3.1c-3-1.3-3.5-6.2-0.6-8.1c0.9-0.6,3.4-0.3,3.9-1.2c0.1-0.8,0.1-1.7,0.2-2.5C103.6,71.7,105,71,106.6,70.2z
		"/>
	<path class="st0" d="M44.4,71.9c1,0.1,1.5,0.5,2.2,0.9c0.2,0.7,0.3,1.4,0.2,2.3c-0.4,0.4-0.8,0.7-1.2,1.1c-2.5,0.9-3.3-1.4-2.8-3.3
		C43.2,72.6,43.8,72.3,44.4,71.9z"/>
	<path class="st0" d="M62.2,73.9c4.7-0.3,5.2,5.5,1.5,6.3C59.1,81.4,59.3,75.7,62.2,73.9z"/>
	<path class="st0" d="M79.5,75.9c5.3-0.1,5.6,6.9,1.1,7.7C75.9,84.6,74.6,78.2,79.5,75.9z"/>
	<path class="st0" d="M70.7,76.1c4.7-0.2,5.5,6,1.7,7C67.2,84.4,66.8,78,70.7,76.1z"/>
	<path class="st0" d="M51.2,76.5c0.7,0.1,1.3,0.1,2,0.2c0.9,0.8,1.4,1.1,1.4,2.9c-0.4,1-1.5,2.3-2.8,1.9c-1.5-0.2-2.3-1.2-2.3-2.8
		C49.9,77.6,50.3,77.2,51.2,76.5z"/>
	<path class="st0" d="M58.8,80.9c5.6-0.4,3.7,6.8,0.5,5.6c-1.2-0.1-1.8-0.7-2.2-1.5C55.9,83,57.6,81.6,58.8,80.9z"/>
	<path class="st0" d="M93.3,81.2c5.5,0,6,7.3,1.2,8.4c-3.5,0.8-6.2-3.3-4.5-6.2C90.8,82.1,92,81.8,93.3,81.2z"/>
	<path class="st0" d="M67.6,83.5c4.1,0.2,4.5,5.8,0.8,6.5C64.3,90.8,63.4,85.5,67.6,83.5z"/>
	<path class="st0" d="M84.9,84c5.1,0.1,5.4,6.9,0.9,7.7C81.1,92.6,79.8,86.2,84.9,84z"/>
	<path class="st0" d="M75.8,84.8c4.8-0.3,5.5,6,1.7,7C72.7,93,71.7,87.1,75.8,84.8z"/>
</g>
</svg>
