<?xml version="1.0" encoding="utf-8"?>
<!-- Generator: Adobe Illustrator 26.0.1, SVG Export Plug-In . SVG Version: 6.00 Build 0)  -->
<svg version="1.1" id="icon" xmlns="http://www.w3.org/2000/svg" xmlns:xlink="http://www.w3.org/1999/xlink" x="0px" y="0px"
	 viewBox="0 0 160.5 160.8" style="enable-background:new 0 0 160.5 160.8;" xml:space="preserve">
<style type="text/css">
	.st0{fill:#FFFFFF;}
	.st1{fill:url(#SVGID_1_);}
	.st2{display:none;}
	.st3{display:inline;}
	
		.st4{clip-path:url(#SVGID_00000145738181938658969520000011528785770111726270_);fill:url(#SVGID_00000135658842199886122560000017949376708696389049_);}
</style>
<path class="st0" d="M129.1,24.4H31.4l-7.1,7.1v97.7l7.1,7.1H129l7.1-7.1V31.6L129.1,24.4z M130.1,126.7l-3.6,3.6H33.9l-3.6-3.5
	V34.1l3.6-3.6h92.6l3.6,3.6V126.7z M39,44.1l-1.4-2.4l1.4-2.4h2.8l1.4,2.4l-1.4,2.4H39z M118.7,44.1l-1.4-2.4l1.4-2.4h2.8l1.4,2.4
	l-1.4,2.4H118.7z M39,122.4l-1.4-2.4l1.4-2.4h2.8l1.4,2.4l-1.4,2.4H39z M118.7,122.4l-1.4-2.4l1.4-2.4h2.8l1.4,2.4l-1.4,2.4H118.7z
	 M123.8,33.3H36.7l-3.5,3.5V124l3.5,3.5h87.1l3.5-3.5V36.8L123.8,33.3z M36.9,33.9h86.6l3.2,3.2v36.1l-93,13.7V37.1L36.9,33.9z
	 M123.6,126.9H36.9l-3.2-3.2v-36l93-13.8v49.8L123.6,126.9z"/>
<linearGradient id="SVGID_1_" gradientUnits="userSpaceOnUse" x1="107.1628" y1="60.0795" x2="50.9824" y2="101.7617">
	<stop  offset="0" style="stop-color:#F3B9FF"/>
	<stop  offset="6.517816e-02" style="stop-color:#E5BFFF"/>
	<stop  offset="0.1395" style="stop-color:#C9CBFF"/>
	<stop  offset="0.2128" style="stop-color:#C6D2FF"/>
	<stop  offset="0.2767" style="stop-color:#BDEDFF"/>
	<stop  offset="0.3435" style="stop-color:#BBFCFC"/>
	<stop  offset="0.4088" style="stop-color:#BBFFF4"/>
	<stop  offset="0.4805" style="stop-color:#C1FFDF"/>
	<stop  offset="0.5531" style="stop-color:#D0FFC5"/>
	<stop  offset="0.6238" style="stop-color:#DFFFC1"/>
	<stop  offset="0.7085" style="stop-color:#FDFCBB"/>
	<stop  offset="0.7776" style="stop-color:#FFE5BF"/>
	<stop  offset="0.8501" style="stop-color:#FFC8C9"/>
	<stop  offset="0.9278" style="stop-color:#FFBDEB"/>
	<stop  offset="1" style="stop-color:#E6C0FF"/>
</linearGradient>
<path class="st1" d="M69.2,97.8H65v-0.1c0-2.4-0.9-3.7-2.6-3.7c-1,0-1.7,0.3-2.1,0.8c-0.4,0.5-0.6,1.3-0.6,2.3v9.2
	c0,1,0.2,1.7,0.6,2.2c0.4,0.5,1.1,0.8,2.1,0.8c0.8,0,1.5-0.3,1.9-0.8c0.5-0.6,0.7-1.3,0.7-2.3v-1.3h-3v-3.5h7.2v11.3H67l-0.6-1.8
	c-0.6,0.7-1.2,1.2-1.9,1.6c-0.6,0.4-1.4,0.6-2.2,0.6c-2.3,0-4-0.6-5.1-1.9c-1.2-1.3-1.7-3.1-1.7-5.4v-8c0-4.9,2.3-7.4,7-7.4
	c2.2,0,3.8,0.6,5,1.9C68.5,93.5,69.1,95.3,69.2,97.8z M86.9,97.2c0,2.2-0.7,3.9-2,5c-1.4,1.1-3.2,1.6-5.6,1.6h-2v8.9h-4.2V90.6h6.2
	c2.3,0,4.2,0.5,5.5,1.6C86.2,93.4,86.9,95,86.9,97.2z M82.7,97.2c0-1-0.3-1.8-0.8-2.3s-1.3-0.8-2.2-0.8h-2.4v6.2h2.4
	c1,0,1.7-0.3,2.2-0.8C82.4,99.1,82.7,98.3,82.7,97.2z M97.2,109.3c2,0,3-1,3-3.1V90.6h4.2v15.6c0,2.2-0.6,3.8-1.8,5
	c-1.2,1.2-3,1.8-5.4,1.8c-2.3,0-4.1-0.6-5.4-1.8c-1.2-1.2-1.8-2.8-1.8-5V90.6h4.2v15.6C94.3,108.3,95.3,109.3,97.2,109.3z
	 M69.4,55.3h-4.2v-0.7c0-0.9-0.2-1.7-0.6-2.2s-1.1-0.8-2.2-0.8c-1,0-1.7,0.3-2.1,0.8c-0.4,0.5-0.6,1.3-0.6,2.2v9.2
	c0,1,0.2,1.7,0.6,2.2c0.4,0.5,1.1,0.7,2.1,0.7c1.1,0,1.9-0.3,2.2-0.9s0.5-1.4,0.5-2.4v-1.3h4.2v1c0,2.3-0.6,4.2-1.7,5.4
	c-1.1,1.3-2.9,1.9-5.3,1.9c-2.3,0-4.1-0.6-5.2-1.9c-1.2-1.3-1.7-3-1.7-5.4v-8.2c0-2.3,0.6-4.1,1.7-5.4c1.2-1.2,2.9-1.9,5.2-1.9
	C67.1,47.9,69.4,50.4,69.4,55.3z M86.9,54.8c0,2.2-0.7,3.9-2,5c-1.4,1.1-3.2,1.6-5.6,1.6h-2v8.9h-4.2V48.2h6.2
	c2.3,0,4.2,0.5,5.5,1.6C86.2,50.9,86.9,52.6,86.9,54.8z M82.7,54.8c0-1-0.3-1.8-0.8-2.3s-1.3-0.8-2.2-0.8h-2.4v6.2h2.4
	c1,0,1.7-0.3,2.2-0.8C82.4,56.6,82.7,55.8,82.7,54.8z M97.2,66.8c2,0,3-1,3-3.1V48.2h4.2v15.6c0,2.2-0.6,3.8-1.8,5
	c-1.2,1.2-3,1.8-5.4,1.8c-2.3,0-4.1-0.6-5.4-1.8c-1.2-1.2-1.8-2.8-1.8-5V48.2h4.2v15.6C94.3,65.8,95.3,66.8,97.2,66.8z"/>
<g class="st2">
	<g class="st3">
		<g>
			<g>
				<g>
					<defs>
						<polygon id="SVGID_00000060716861714309871340000007424317919496381316_" points="-71.3,243.5 -170.1,144.7 -71.3,144.7 
													"/>
					</defs>
					<clipPath id="SVGID_00000114768153109309596670000007505894673648714406_">
						<use xlink:href="#SVGID_00000060716861714309871340000007424317919496381316_"  style="overflow:visible;"/>
					</clipPath>
					
						<linearGradient id="SVGID_00000010306867918407138870000003990591314645537155_" gradientUnits="userSpaceOnUse" x1="-61.0974" y1="1251.264" x2="-172.2085" y2="1349.9307" gradientTransform="matrix(1 0 0 1 0 -1114)">
						<stop  offset="0" style="stop-color:#F3B9FF"/>
						<stop  offset="6.517816e-02" style="stop-color:#E5BFFF"/>
						<stop  offset="0.1395" style="stop-color:#C9CBFF"/>
						<stop  offset="0.2128" style="stop-color:#C6D2FF"/>
						<stop  offset="0.2767" style="stop-color:#BDEDFF"/>
						<stop  offset="0.3435" style="stop-color:#BBFCFC"/>
						<stop  offset="0.4088" style="stop-color:#BBFFF4"/>
						<stop  offset="0.4805" style="stop-color:#C1FFDF"/>
						<stop  offset="0.5531" style="stop-color:#D0FFC5"/>
						<stop  offset="0.6238" style="stop-color:#DFFFC1"/>
						<stop  offset="0.7085" style="stop-color:#FDFCBB"/>
						<stop  offset="0.7776" style="stop-color:#FFE5BF"/>
						<stop  offset="0.8501" style="stop-color:#FFC8C9"/>
						<stop  offset="0.9278" style="stop-color:#FFBDEB"/>
						<stop  offset="1" style="stop-color:#E6C0FF"/>
					</linearGradient>
					
						<path style="clip-path:url(#SVGID_00000114768153109309596670000007505894673648714406_);fill:url(#SVGID_00000010306867918407138870000003990591314645537155_);" d="
						M-102,93.8c-1,1-2.7,1-3.7,0s-1-2.7,0-3.7s2.7-1,3.7,0C-101,91.1-101,92.8-102,93.8L-102,93.8z M-94.9,100.9c-1,1-2.7,1-3.7,0
						s-1-2.7,0-3.7s2.7-1,3.7,0l0,0C-93.9,98.2-93.9,99.9-94.9,100.9z M-87.8,108c-1,1-2.7,1-3.7,0s-1-2.7,0-3.7s2.7-1,3.7,0
						S-86.8,106.9-87.8,108z M-80.8,115.1c-1,1-2.7,1-3.7,0s-1-2.7,0-3.7s2.7-1,3.7,0S-79.8,114-80.8,115.1z M-73.7,122.1
						c-1,1-2.7,1-3.7,0s-1-2.7,0-3.7s2.7-1,3.7,0S-72.7,121-73.7,122.1C-73.7,122-73.7,122-73.7,122.1z M-66.6,129.2
						c-1,1-2.7,1-3.7,0s-1-2.7,0-3.7s2.7-1,3.7,0S-65.6,128.1-66.6,129.2L-66.6,129.2z M-59.6,136.2c-1,1-2.7,1-3.7,0
						c-1-1-1-2.7,0-3.7c1-1,2.7-1,3.7,0C-58.5,133.6-58.5,135.2-59.6,136.2z M-52.5,143.3c-1,1-2.7,1-3.7,0s-1-2.7,0-3.7
						s2.7-1,3.7,0S-51.5,142.3-52.5,143.3z M-45.4,150.4c-1,1-2.7,1-3.7,0s-1-2.7,0-3.7s2.7-1,3.7,0S-44.4,149.3-45.4,150.4
						L-45.4,150.4z M-111,96.5c1.4,0,2.6,1.2,2.6,2.6s-1.2,2.6-2.6,2.6s-2.6-1.2-2.6-2.6C-113.6,97.6-112.5,96.5-111,96.5z
						 M-119.9,108.1c-1-1-1-2.7,0-3.7s2.7-1,3.7,0s1,2.7,0,3.7C-117.2,109.1-118.9,109.1-119.9,108.1z M-125.2,110.6
						c1.4,0,2.6,1.2,2.6,2.6s-1.2,2.6-2.6,2.6s-2.6-1.2-2.6-2.6C-127.8,111.8-126.6,110.6-125.2,110.6z M-134.1,122.2
						c-1-1-1-2.7,0-3.7s2.7-1,3.7,0s1,2.7,0,3.7C-131.4,123.2-133,123.2-134.1,122.2L-134.1,122.2z M-139.3,124.8
						c1.4,0,2.6,1.2,2.6,2.6s-1.2,2.6-2.6,2.6s-2.6-1.2-2.6-2.6C-141.9,125.9-140.7,124.8-139.3,124.8z M-148.2,136.3
						c-1-1-1-2.7,0-3.7s2.7-1,3.7,0s1,2.7,0,3.7S-147.2,137.3-148.2,136.3z M-155.3,143.4c-1-1-1-2.7,0-3.7s2.7-1,3.7,0s1,2.7,0,3.7
						S-154.2,144.4-155.3,143.4L-155.3,143.4z M-162.4,150.5c-1-1-1-2.7,0-3.7s2.7-1,3.7,0s1,2.7,0,3.7S-161.3,151.5-162.4,150.5
						C-162.3,150.5-162.4,150.5-162.4,150.5z M-105.8,108.1c-1-1-1-2.7,0-3.7s2.7-1,3.7,0s1,2.7,0,3.7
						C-103.1,109.1-104.8,109.1-105.8,108.1L-105.8,108.1z M-111,110.6c1.4,0,2.6,1.2,2.6,2.6s-1.2,2.6-2.6,2.6s-2.6-1.2-2.6-2.6
						C-113.6,111.8-112.5,110.6-111,110.6z M-119.9,122.2c-1-1-1-2.7,0-3.7s2.7-1,3.7,0s1,2.7,0,3.7
						C-117.2,123.2-118.9,123.2-119.9,122.2z M-125.2,124.8c1.4,0,2.6,1.2,2.6,2.6s-1.2,2.6-2.6,2.6s-2.6-1.2-2.6-2.6
						C-127.8,125.9-126.6,124.8-125.2,124.8z M-134.1,136.3c-1-1-1-2.7,0-3.7s2.7-1,3.7,0s1,2.7,0,3.7
						C-131.4,137.3-133,137.3-134.1,136.3L-134.1,136.3z M-141.2,143.4c-1-1-1-2.7,0-3.7s2.7-1,3.7,0s1,2.7,0,3.7
						S-140.1,144.4-141.2,143.4z M-148.2,150.5c-1-1-1-2.7,0-3.7s2.7-1,3.7,0s1,2.7,0,3.7S-147.2,151.5-148.2,150.5z M-155.3,157.5
						c-1-1-1-2.7,0-3.7s2.7-1,3.7,0s1,2.7,0,3.7C-152.6,158.6-154.2,158.6-155.3,157.5L-155.3,157.5z M-96.9,110.6
						c1.4,0,2.6,1.2,2.6,2.6s-1.2,2.6-2.6,2.6s-2.6-1.2-2.6-2.6C-99.5,111.8-98.3,110.6-96.9,110.6z M-105.8,122.2c-1-1-1-2.7,0-3.7
						s2.7-1,3.7,0s1,2.7,0,3.7C-103.1,123.2-104.8,123.2-105.8,122.2L-105.8,122.2z M-111,124.8c1.4,0,2.6,1.2,2.6,2.6
						s-1.2,2.6-2.6,2.6s-2.6-1.2-2.6-2.6C-113.6,125.9-112.5,124.8-111,124.8z M-119.9,136.3c-1-1-1-2.7,0-3.7s2.7-1,3.7,0
						s1,2.7,0,3.7C-117.2,137.3-118.9,137.3-119.9,136.3z M-127,143.4c-1-1-1-2.7,0-3.7s2.7-1,3.7,0s1,2.7,0,3.7
						S-126,144.4-127,143.4L-127,143.4z M-134.1,150.5c-1-1-1-2.7,0-3.7s2.7-1,3.7,0s1,2.7,0,3.7
						C-131.4,151.5-133,151.5-134.1,150.5L-134.1,150.5z M-141.2,157.5c-1-1-1-2.7,0-3.7s2.7-1,3.7,0s1,2.7,0,3.7
						C-138.5,158.6-140.1,158.6-141.2,157.5z M-148.2,164.6c-1-1-1-2.7,0-3.7s2.7-1,3.7,0s1,2.7,0,3.7S-147.2,165.6-148.2,164.6z
						 M-91.6,122.2c-1-1-1-2.7,0-3.7s2.7-1,3.7,0s1,2.7,0,3.7C-89,123.2-90.6,123.2-91.6,122.2z M-96.9,124.8c1.4,0,2.6,1.2,2.6,2.6
						s-1.2,2.6-2.6,2.6s-2.6-1.2-2.6-2.6C-99.5,125.9-98.3,124.8-96.9,124.8z M-105.8,136.3c-1-1-1-2.7,0-3.7s2.7-1,3.7,0
						s1,2.7,0,3.7C-103.1,137.3-104.8,137.3-105.8,136.3L-105.8,136.3z M-112.8,143.4c-1-1-1-2.7,0-3.7s2.7-1,3.7,0s1,2.7,0,3.7
						C-110.1,144.4-111.8,144.4-112.8,143.4z M-119.9,150.5c-1-1-1-2.7,0-3.7s2.7-1,3.7,0s1,2.7,0,3.7
						C-117.2,151.5-118.9,151.5-119.9,150.5z M-127,157.5c-1-1-1-2.7,0-3.7s2.7-1,3.7,0s1,2.7,0,3.7
						C-124.3,158.6-126,158.6-127,157.5L-127,157.5z M-134.1,164.6c-1-1-1-2.7,0-3.7s2.7-1,3.7,0s1,2.7,0,3.7
						C-131.4,165.6-133,165.6-134.1,164.6L-134.1,164.6z M-141.2,171.7c-1-1-1-2.7,0-3.7s2.7-1,3.7,0s1,2.7,0,3.7
						S-140.1,172.7-141.2,171.7z M-82.7,124.8c1.4,0,2.6,1.2,2.6,2.6s-1.2,2.6-2.6,2.6s-2.6-1.2-2.6-2.6
						C-85.3,125.9-84.2,124.8-82.7,124.8z M-91.6,136.3c-1-1-1-2.7,0-3.7s2.7-1,3.7,0s1,2.7,0,3.7C-89,137.3-90.6,137.3-91.6,136.3z
						 M-98.7,143.4c-1-1-1-2.7,0-3.7s2.7-1,3.7,0s1,2.7,0,3.7S-97.7,144.4-98.7,143.4L-98.7,143.4z M-105.8,150.5c-1-1-1-2.7,0-3.7
						s2.7-1,3.7,0s1,2.7,0,3.7C-103.1,151.5-104.8,151.5-105.8,150.5L-105.8,150.5z M-112.8,157.5c-1-1-1-2.7,0-3.7s2.7-1,3.7,0
						s1,2.7,0,3.7C-110.1,158.6-111.8,158.6-112.8,157.5z M-119.9,164.6c-1-1-1-2.7,0-3.7s2.7-1,3.7,0s1,2.7,0,3.7
						C-117.2,165.6-118.9,165.6-119.9,164.6z M-127,171.7c-1-1-1-2.7,0-3.7s2.7-1,3.7,0s1,2.7,0,3.7S-126,172.7-127,171.7
						L-127,171.7z M-134.1,178.8c-1-1-1-2.7,0-3.7s2.7-1,3.7,0s1,2.7,0,3.7C-131.4,179.8-133,179.8-134.1,178.8L-134.1,178.8z
						 M-77.5,136.3c-1-1-1-2.7,0-3.7s2.7-1,3.7,0s1,2.7,0,3.7S-76.4,137.3-77.5,136.3L-77.5,136.3z M-84.6,143.4c-1-1-1-2.7,0-3.7
						s2.7-1,3.7,0s1,2.7,0,3.7S-83.5,144.4-84.6,143.4z M-91.6,150.5c-1-1-1-2.7,0-3.7s2.7-1,3.7,0s1,2.7,0,3.7
						C-89,151.5-90.6,151.5-91.6,150.5z M-98.7,157.5c-1-1-1-2.7,0-3.7s2.7-1,3.7,0s1,2.7,0,3.7C-96,158.6-97.7,158.6-98.7,157.5
						L-98.7,157.5z M-105.8,164.6c-1-1-1-2.7,0-3.7s2.7-1,3.7,0s1,2.7,0,3.7C-103.1,165.6-104.8,165.6-105.8,164.6L-105.8,164.6z
						 M-112.8,171.7c-1-1-1-2.7,0-3.7s2.7-1,3.7,0s1,2.7,0,3.7C-110.1,172.7-111.8,172.7-112.8,171.7z M-119.9,178.8
						c-1-1-1-2.7,0-3.7s2.7-1,3.7,0s1,2.7,0,3.7C-117.2,179.8-118.9,179.8-119.9,178.8z M-127,185.8c-1-1-1-2.7,0-3.7s2.7-1,3.7,0
						s1,2.7,0,3.7C-124.3,186.9-126,186.9-127,185.8L-127,185.8z M-70.4,143.4c-1-1-1-2.7,0-3.7s2.7-1,3.7,0s1,2.7,0,3.7
						C-67.7,144.4-69.4,144.4-70.4,143.4L-70.4,143.4z M-77.5,150.5c-1-1-1-2.7,0-3.7s2.7-1,3.7,0s1,2.7,0,3.7
						S-76.4,151.5-77.5,150.5L-77.5,150.5z M-84.6,157.5c-1-1-1-2.7,0-3.7s2.7-1,3.7,0s1,2.7,0,3.7
						C-81.9,158.6-83.5,158.6-84.6,157.5z M-91.6,164.6c-1-1-1-2.7,0-3.7s2.7-1,3.7,0s1,2.7,0,3.7C-89,165.6-90.6,165.6-91.6,164.6z
						 M-98.7,171.7c-1-1-1-2.7,0-3.7s2.7-1,3.7,0s1,2.7,0,3.7S-97.7,172.7-98.7,171.7L-98.7,171.7z M-105.8,178.8c-1-1-1-2.7,0-3.7
						s2.7-1,3.7,0s1,2.7,0,3.7C-103.1,179.8-104.8,179.8-105.8,178.8L-105.8,178.8z M-112.8,185.8c-1-1-1-2.7,0-3.7s2.7-1,3.7,0
						s1,2.7,0,3.7C-110.1,186.8-111.8,186.8-112.8,185.8z M-119.9,192.9c-1-1-1-2.7,0-3.7s2.7-1,3.7,0s1,2.7,0,3.7
						C-117.2,193.9-118.9,193.9-119.9,192.9z M-63.4,150.5c-1-1-1-2.7,0-3.7s2.7-1,3.7,0s1,2.7,0,3.7S-62.3,151.5-63.4,150.5z
						 M-70.4,157.5c-1-1-1-2.7,0-3.7s2.7-1,3.7,0s1,2.7,0,3.7C-67.7,158.6-69.4,158.6-70.4,157.5L-70.4,157.5z M-77.5,164.6
						c-1-1-1-2.7,0-3.7s2.7-1,3.7,0s1,2.7,0,3.7S-76.4,165.6-77.5,164.6L-77.5,164.6z M-84.6,171.7c-1-1-1-2.7,0-3.7s2.7-1,3.7,0
						s1,2.7,0,3.7S-83.5,172.7-84.6,171.7z M-91.6,178.8c-1-1-1-2.7,0-3.7s2.7-1,3.7,0s1,2.7,0,3.7C-89,179.8-90.6,179.8-91.6,178.8
						z M-98.7,185.8c-1-1-1-2.7,0-3.7s2.7-1,3.7,0s1,2.7,0,3.7C-96,186.9-97.7,186.9-98.7,185.8L-98.7,185.8z M-105.8,192.9
						c-1-1-1-2.7,0-3.7s2.7-1,3.7,0s1,2.7,0,3.7C-103.1,193.9-104.8,193.9-105.8,192.9L-105.8,192.9z M-112.8,200c-1-1-1-2.7,0-3.7
						s2.7-1,3.7,0s1,2.7,0,3.7C-110.1,201-111.8,201-112.8,200z M-56.3,157.5c-1-1-1-2.7,0-3.7s2.7-1,3.7,0s1,2.7,0,3.7
						C-53.6,158.6-55.3,158.6-56.3,157.5z M-63.4,164.6c-1-1-1-2.7,0-3.7s2.7-1,3.7,0s1,2.7,0,3.7S-62.3,165.6-63.4,164.6z
						 M-70.4,171.7c-1-1-1-2.7,0-3.7s2.7-1,3.7,0s1,2.7,0,3.7C-67.7,172.7-69.4,172.7-70.4,171.7L-70.4,171.7z M-77.5,178.8
						c-1-1-1-2.7,0-3.7s2.7-1,3.7,0s1,2.7,0,3.7S-76.4,179.8-77.5,178.8L-77.5,178.8z M-84.6,185.8c-1-1-1-2.7,0-3.7s2.7-1,3.7,0
						s1,2.7,0,3.7S-83.5,186.8-84.6,185.8z M-91.6,192.9c-1-1-1-2.7,0-3.7s2.7-1,3.7,0s1,2.7,0,3.7C-89,193.9-90.6,193.9-91.6,192.9
						z M-98.7,200c-1-1-1-2.7,0-3.7s2.7-1,3.7,0s1,2.7,0,3.7S-97.7,201-98.7,200L-98.7,200z M-105.8,207.1c-1-1-1-2.7,0-3.7
						s2.7-1,3.7,0s1,2.7,0,3.7C-103.1,208.1-104.8,208.1-105.8,207.1L-105.8,207.1z M-49.2,164.6c-1-1-1-2.7,0-3.7s2.7-1,3.7,0
						s1,2.7,0,3.7S-48.2,165.6-49.2,164.6L-49.2,164.6z M-56.3,171.7c-1-1-1-2.7,0-3.7s2.7-1,3.7,0s1,2.7,0,3.7
						S-55.3,172.7-56.3,171.7z M-63.4,178.8c-1-1-1-2.7,0-3.7s2.7-1,3.7,0s1,2.7,0,3.7S-62.3,179.8-63.4,178.8z M-70.4,185.8
						c-1-1-1-2.7,0-3.7s2.7-1,3.7,0s1,2.7,0,3.7C-67.7,186.9-69.4,186.9-70.4,185.8L-70.4,185.8z M-77.5,192.9c-1-1-1-2.7,0-3.7
						s2.7-1,3.7,0s1,2.7,0,3.7S-76.4,193.9-77.5,192.9L-77.5,192.9z M-84.6,200c-1-1-1-2.7,0-3.7s2.7-1,3.7,0s1,2.7,0,3.7
						S-83.5,201-84.6,200z M-91.6,207.1c-1-1-1-2.7,0-3.7s2.7-1,3.7,0s1,2.7,0,3.7C-89,208.1-90.6,208.1-91.6,207.1z M-98.7,214.1
						c-1-1-1-2.7,0-3.7s2.7-1,3.7,0s1,2.7,0,3.7S-97.7,215.1-98.7,214.1L-98.7,214.1z M-42.1,171.7c-1-1-1-2.7,0-3.7s2.7-1,3.7,0
						s1,2.7,0,3.7C-39.4,172.7-41.1,172.7-42.1,171.7L-42.1,171.7z M-49.2,178.8c-1-1-1-2.7,0-3.7s2.7-1,3.7,0s1,2.7,0,3.7
						S-48.2,179.8-49.2,178.8L-49.2,178.8z M-56.3,185.8c-1-1-1-2.7,0-3.7s2.7-1,3.7,0s1,2.7,0,3.7S-55.3,186.8-56.3,185.8z
						 M-63.4,192.9c-1-1-1-2.7,0-3.7s2.7-1,3.7,0s1,2.7,0,3.7S-62.3,193.9-63.4,192.9z M-70.4,200c-1-1-1-2.7,0-3.7s2.7-1,3.7,0
						s1,2.7,0,3.7C-67.7,201-69.4,201-70.4,200L-70.4,200z M-77.5,207.1c-1-1-1-2.7,0-3.7s2.7-1,3.7,0s1,2.7,0,3.7
						S-76.4,208.1-77.5,207.1L-77.5,207.1z M-84.6,214.1c-1-1-1-2.7,0-3.7s2.7-1,3.7,0s1,2.7,0,3.7S-83.5,215.1-84.6,214.1z
						 M-91.6,221.2c-1-1-1-2.7,0-3.7s2.7-1,3.7,0s1,2.7,0,3.7C-89,222.2-90.6,222.2-91.6,221.2z M-35.1,178.8c-1-1-1-2.7,0-3.7
						s2.7-1,3.7,0s1,2.7,0,3.7C-32.4,179.8-34,179.8-35.1,178.8z M-42.1,185.8c-1-1-1-2.7,0-3.7s2.7-1,3.7,0s1,2.7,0,3.7
						C-39.4,186.9-41.1,186.9-42.1,185.8L-42.1,185.8z M-49.2,192.9c-1-1-1-2.7,0-3.7s2.7-1,3.7,0s1,2.7,0,3.7
						S-48.2,193.9-49.2,192.9L-49.2,192.9z M-56.3,200c-1-1-1-2.7,0-3.7s2.7-1,3.7,0s1,2.7,0,3.7S-55.3,201-56.3,200z M-63.4,207.1
						c-1-1-1-2.7,0-3.7s2.7-1,3.7,0s1,2.7,0,3.7S-62.3,208.1-63.4,207.1z M-70.4,214.1c-1-1-1-2.7,0-3.7s2.7-1,3.7,0s1,2.7,0,3.7
						C-67.7,215.1-69.4,215.1-70.4,214.1L-70.4,214.1z M-77.5,221.2c-1-1-1-2.7,0-3.7s2.7-1,3.7,0s1,2.7,0,3.7
						S-76.4,222.2-77.5,221.2L-77.5,221.2z M-84.6,228.3c-1-1-1-2.7,0-3.7s2.7-1,3.7,0s1,2.7,0,3.7S-83.5,229.3-84.6,228.3z
						 M-28,185.8c-1-1-1-2.7,0-3.7s2.7-1,3.7,0s1,2.7,0,3.7S-27,186.8-28,185.8z M-42.1,157.5c-1-1-1-2.7,0-3.7s2.7-1,3.7,0
						s1,2.7,0,3.7l0,0C-39.4,158.5-41,158.5-42.1,157.5z M-35,164.5c-1-1-1-2.7,0-3.7s2.7-1,3.7,0s1,2.7,0,3.7
						C-32.3,165.6-33.9,165.6-35,164.5L-35,164.5z M-27.9,171.6c-1-1-1-2.7,0-3.7s2.7-1,3.7,0s1,2.7,0,3.7
						C-25.2,172.6-26.9,172.6-27.9,171.6z M-20.8,178.7c-1-1-1-2.7,0-3.7s2.7-1,3.7,0s1,2.7,0,3.7
						C-18.1,179.7-19.8,179.7-20.8,178.7z M-35.1,192.9c-1-1-1-2.7,0-3.7s2.7-1,3.7,0s1,2.7,0,3.7C-32.4,193.9-34,193.9-35.1,192.9z
						 M-42.1,200c-1-1-1-2.7,0-3.7s2.7-1,3.7,0s1,2.7,0,3.7C-39.4,201-41.1,201-42.1,200L-42.1,200z M-49.2,207.1c-1-1-1-2.7,0-3.7
						s2.7-1,3.7,0s1,2.7,0,3.7S-48.2,208.1-49.2,207.1L-49.2,207.1z M-56.3,214.1c-1-1-1-2.7,0-3.7s2.7-1,3.7,0s1,2.7,0,3.7
						S-55.3,215.1-56.3,214.1z M-63.4,221.2c-1-1-1-2.7,0-3.7s2.7-1,3.7,0s1,2.7,0,3.7S-62.3,222.2-63.4,221.2z M-70.4,228.3
						c-1-1-1-2.7,0-3.7s2.7-1,3.7,0s1,2.7,0,3.7C-67.7,229.3-69.4,229.3-70.4,228.3L-70.4,228.3z M-77.5,235.3c-1-1-1-2.7,0-3.7
						s2.7-1,3.7,0s1,2.7,0,3.7C-74.8,236.4-76.4,236.4-77.5,235.3L-77.5,235.3z"/>
				</g>
			</g>
		</g>
	</g>
</g>
</svg>
