<?xml version="1.0" encoding="utf-8"?>
<!-- Generator: Adobe Illustrator 26.0.1, SVG Export Plug-In . SVG Version: 6.00 Build 0)  -->
<svg version="1.1" id="icon" xmlns="http://www.w3.org/2000/svg" xmlns:xlink="http://www.w3.org/1999/xlink" x="0px" y="0px"
	 viewBox="0 0 166.4 104" style="enable-background:new 0 0 166.4 104;" xml:space="preserve">
<style type="text/css">
	.st0{fill:url(#SVGID_1_);}
	.st1{fill:#FFFFFF;}
</style>
<linearGradient id="SVGID_1_" gradientUnits="userSpaceOnUse" x1="117.4845" y1="63.2177" x2="57.302" y2="28.497">
	<stop  offset="0" style="stop-color:#F3B9FF"/>
	<stop  offset="6.517816e-02" style="stop-color:#E5BFFF"/>
	<stop  offset="0.1395" style="stop-color:#C9CBFF"/>
	<stop  offset="0.2128" style="stop-color:#C6D2FF"/>
	<stop  offset="0.2767" style="stop-color:#BDEDFF"/>
	<stop  offset="0.3435" style="stop-color:#BBFCFC"/>
	<stop  offset="0.4088" style="stop-color:#BBFFF4"/>
	<stop  offset="0.4805" style="stop-color:#C1FFDF"/>
	<stop  offset="0.5531" style="stop-color:#D0FFC5"/>
	<stop  offset="0.6238" style="stop-color:#DFFFC1"/>
	<stop  offset="0.7085" style="stop-color:#FDFCBB"/>
	<stop  offset="0.7776" style="stop-color:#FFE5BF"/>
	<stop  offset="0.8501" style="stop-color:#FFC8C9"/>
	<stop  offset="0.9278" style="stop-color:#FFBDEB"/>
	<stop  offset="1" style="stop-color:#E6C0FF"/>
</linearGradient>
<path class="st0" d="M53.7,26.7h-3v-2.2c0.6-0.1,1.2-0.3,1.8-0.5c0.4-0.2,0.8-0.4,1.1-0.6s0.5-0.5,0.8-0.8c0.2-0.3,0.4-0.6,0.7-0.9
	h2.2v20h-3.4L53.7,26.7z M72.5,27.2c0-0.6-0.3-1.2-0.8-1.7c-0.5-0.4-1.1-0.7-1.7-0.7c-0.4,0-0.9,0.1-1.3,0.2s-0.7,0.4-0.9,0.7
	c-0.3,0.4-0.5,0.8-0.6,1.3c-0.1,0.7-0.2,1.3-0.2,2v1.8c0.6-0.5,1.3-0.8,2-1.1c0.7-0.3,1.5-0.4,2.2-0.4c0.8,0,1.6,0.1,2.3,0.5
	c0.6,0.3,1.2,0.7,1.6,1.3c0.5,0.6,0.8,1.2,1,1.9s0.3,1.5,0.3,2.2c0,0.9-0.1,1.9-0.4,2.8c-0.2,0.8-0.6,1.5-1.2,2.2
	c-0.5,0.6-1.2,1.1-2,1.4c-0.9,0.4-1.9,0.5-2.9,0.5c-1.8,0.1-3.6-0.5-4.9-1.8c-1.2-1.4-1.8-3.2-1.7-5v-6.6c-0.1-1.8,0.5-3.6,1.7-5
	c2.6-2.3,6.4-2.4,9.1-0.4c1.1,1,1.8,2.5,1.9,4L72.5,27.2z M67,34.8c0,0.7,0,1.3,0.2,2c0.1,0.5,0.3,0.9,0.6,1.3
	c0.2,0.3,0.6,0.5,0.9,0.7c0.4,0.1,0.9,0.2,1.3,0.2c0.8,0,1.6-0.3,2.1-1c0.5-0.8,0.8-1.7,0.7-2.7c0.1-0.9-0.2-1.8-0.8-2.4
	c-0.5-0.5-1.3-0.8-2.1-0.8c-0.6,0-1.1,0.2-1.6,0.5s-1,0.7-1.4,1.1L67,34.8z M79.5,33.6v-3.9h3.9v3.9H79.5z M79.5,41.8v-3.9h3.9v3.9
	H79.5z M91.6,26.7h-3v-2.2c0.6-0.1,1.2-0.3,1.8-0.5c0.4-0.2,0.8-0.4,1.1-0.6c0.3-0.2,0.5-0.5,0.8-0.8l0.7-0.9h2.1v20h-3.4L91.6,26.7
	z M101.4,28.6c-0.1-1.8,0.5-3.6,1.7-5c2.8-2.4,7-2.4,9.8,0c1.2,1.4,1.8,3.2,1.7,5v6.6c0.1,1.8-0.5,3.6-1.7,5c-2.8,2.4-7,2.4-9.8,0
	c-1.2-1.4-1.8-3.2-1.7-5V28.6z M105,34.8c0,0.7,0,1.3,0.2,2c0.1,0.5,0.3,0.9,0.6,1.3c0.2,0.3,0.6,0.5,0.9,0.7
	c0.4,0.1,0.9,0.2,1.3,0.2s0.9-0.1,1.3-0.2c0.4-0.1,0.7-0.4,0.9-0.7c0.3-0.4,0.5-0.8,0.6-1.3c0.1-0.7,0.2-1.3,0.2-2V29
	c0-0.7-0.1-1.3-0.2-2c-0.1-0.5-0.3-0.9-0.6-1.3c-0.2-0.3-0.6-0.5-0.9-0.7c-0.4-0.1-0.9-0.2-1.3-0.2c-0.5,0-0.9,0.1-1.3,0.2
	s-0.7,0.4-0.9,0.7c-0.3,0.4-0.5,0.8-0.6,1.3c-0.1,0.7-0.2,1.3-0.2,2V34.8z M72.9,70.4c-0.8,0-1.6-0.2-2.3-0.6
	C70,69.4,69.4,69,69,68.4c-0.5,0.3-1,0.5-1.6,0.6s-1.2,0.2-1.8,0.2c-0.8,0-1.7-0.1-2.5-0.4c-0.7-0.2-1.4-0.6-2-1.1
	c-0.6-0.6-1-1.2-1.3-2c-0.3-1-0.5-2-0.5-3.1v-7c0-1,0.1-2.1,0.5-3.1c0.3-0.8,0.7-1.4,1.3-2c0.6-0.5,1.3-0.9,2-1.1
	c1.6-0.5,3.4-0.5,5,0c0.7,0.2,1.4,0.6,2,1.1c0.6,0.6,1,1.2,1.3,2c0.3,1,0.5,2,0.5,3.1v7c0.1,1.3-0.2,2.6-0.8,3.9
	c0.3,0.2,0.5,0.4,0.9,0.5s0.7,0.2,1.1,0.2L72.9,70.4z M65.3,60.8c0.6,0.1,1.1,0.3,1.6,0.6c0.4,0.3,0.8,0.7,1.1,1.2l0,0v-7.5
	c0.1-0.8-0.1-1.6-0.7-2.2c-1.1-0.8-2.5-0.8-3.6,0c-0.5,0.6-0.8,1.4-0.6,2.2v8c-0.1,0.8,0.1,1.6,0.6,2.2c0.5,0.4,1.2,0.6,1.8,0.6
	c0.5,0,1-0.1,1.4-0.3c-0.2-0.3-0.5-0.7-0.8-1c-0.2-0.3-0.5-0.5-0.9-0.6L65.3,60.8L65.3,60.8z M75,68.9V49.2h3.8v7.9h5.3v-7.9h3.8
	v19.7h-3.8v-8.5h-5.3V69L75,68.9z M91.4,49.2h5.2c1,0,1.9,0.1,2.9,0.4c0.8,0.2,1.5,0.6,2.1,1.2c0.6,0.6,1.1,1.3,1.4,2.1
	c0.3,1,0.5,2.1,0.5,3.2v6.1c0,1.1-0.2,2.1-0.5,3.1c-0.3,0.8-0.7,1.5-1.4,2.1c-0.6,0.6-1.3,1-2.1,1.2c-0.9,0.3-1.9,0.4-2.9,0.4h-5.2
	V49.2z M95.2,65.6h1.3c0.9,0.1,1.8-0.3,2.4-0.9c0.7-0.9,1-2,0.9-3.1v-5.2c0.1-1.1-0.2-2.1-0.8-3c-0.7-0.7-1.6-1-2.5-0.9h-1.3V65.6z
	 M53.7,26.7h-3v-2.2c0.6-0.1,1.2-0.3,1.8-0.5c0.4-0.2,0.8-0.4,1.1-0.6s0.5-0.5,0.8-0.8c0.2-0.3,0.4-0.6,0.7-0.9h2.2v20h-3.4
	L53.7,26.7z M72.5,27.2c0-0.6-0.3-1.2-0.8-1.7c-0.5-0.4-1.1-0.7-1.7-0.7c-0.4,0-0.9,0.1-1.3,0.2s-0.7,0.4-0.9,0.7
	c-0.3,0.4-0.5,0.8-0.6,1.3c-0.1,0.7-0.2,1.3-0.2,2v1.8c0.6-0.5,1.3-0.8,2-1.1c0.7-0.3,1.5-0.4,2.2-0.4c0.8,0,1.6,0.1,2.3,0.5
	c0.6,0.3,1.2,0.7,1.6,1.3c0.5,0.6,0.8,1.2,1,1.9s0.3,1.5,0.3,2.2c0,0.9-0.1,1.9-0.4,2.8c-0.2,0.8-0.6,1.5-1.2,2.2
	c-0.5,0.6-1.2,1.1-2,1.4c-0.9,0.4-1.9,0.5-2.9,0.5c-1.8,0.1-3.6-0.5-4.9-1.8c-1.2-1.4-1.8-3.2-1.7-5v-6.6c-0.1-1.8,0.5-3.6,1.7-5
	c2.6-2.3,6.4-2.4,9.1-0.4c1.1,1,1.8,2.5,1.9,4L72.5,27.2z M67,34.8c0,0.7,0,1.3,0.2,2c0.1,0.5,0.3,0.9,0.6,1.3
	c0.2,0.3,0.6,0.5,0.9,0.7c0.4,0.1,0.9,0.2,1.3,0.2c0.8,0,1.6-0.3,2.1-1c0.5-0.8,0.8-1.7,0.7-2.7c0.1-0.9-0.2-1.8-0.8-2.4
	c-0.5-0.5-1.3-0.8-2.1-0.8c-0.6,0-1.1,0.2-1.6,0.5s-1,0.7-1.4,1.1L67,34.8z M79.5,33.6v-3.9h3.9v3.9H79.5z M79.5,41.8v-3.9h3.9v3.9
	H79.5z M91.6,26.7h-3v-2.2c0.6-0.1,1.2-0.3,1.8-0.5c0.4-0.2,0.8-0.4,1.1-0.6c0.3-0.2,0.5-0.5,0.8-0.8l0.7-0.9h2.1v20h-3.4L91.6,26.7
	z M101.4,28.6c-0.1-1.8,0.5-3.6,1.7-5c2.8-2.4,7-2.4,9.8,0c1.2,1.4,1.8,3.2,1.7,5v6.6c0.1,1.8-0.5,3.6-1.7,5c-2.8,2.4-7,2.4-9.8,0
	c-1.2-1.4-1.8-3.2-1.7-5V28.6z M105,34.8c0,0.7,0,1.3,0.2,2c0.1,0.5,0.3,0.9,0.6,1.3c0.2,0.3,0.6,0.5,0.9,0.7
	c0.4,0.1,0.9,0.2,1.3,0.2s0.9-0.1,1.3-0.2c0.4-0.1,0.7-0.4,0.9-0.7c0.3-0.4,0.5-0.8,0.6-1.3c0.1-0.7,0.2-1.3,0.2-2V29
	c0-0.7-0.1-1.3-0.2-2c-0.1-0.5-0.3-0.9-0.6-1.3c-0.2-0.3-0.6-0.5-0.9-0.7c-0.4-0.1-0.9-0.2-1.3-0.2c-0.5,0-0.9,0.1-1.3,0.2
	s-0.7,0.4-0.9,0.7c-0.3,0.4-0.5,0.8-0.6,1.3c-0.1,0.7-0.2,1.3-0.2,2V34.8z M72.9,70.4c-0.8,0-1.6-0.2-2.3-0.6
	C70,69.4,69.4,69,69,68.4c-0.5,0.3-1,0.5-1.6,0.6s-1.2,0.2-1.8,0.2c-0.8,0-1.7-0.1-2.5-0.4c-0.7-0.2-1.4-0.6-2-1.1
	c-0.6-0.6-1-1.2-1.3-2c-0.3-1-0.5-2-0.5-3.1v-7c0-1,0.1-2.1,0.5-3.1c0.3-0.8,0.7-1.4,1.3-2c0.6-0.5,1.3-0.9,2-1.1
	c1.6-0.5,3.4-0.5,5,0c0.7,0.2,1.4,0.6,2,1.1c0.6,0.6,1,1.2,1.3,2c0.3,1,0.5,2,0.5,3.1v7c0.1,1.3-0.2,2.6-0.8,3.9
	c0.3,0.2,0.5,0.4,0.9,0.5s0.7,0.2,1.1,0.2L72.9,70.4z M65.3,60.8c0.6,0.1,1.1,0.3,1.6,0.6c0.4,0.3,0.8,0.7,1.1,1.2l0,0v-7.5
	c0.1-0.8-0.1-1.6-0.7-2.2c-1.1-0.8-2.5-0.8-3.6,0c-0.5,0.6-0.8,1.4-0.6,2.2v8c-0.1,0.8,0.1,1.6,0.6,2.2c0.5,0.4,1.2,0.6,1.8,0.6
	c0.5,0,1-0.1,1.4-0.3c-0.2-0.3-0.5-0.7-0.8-1c-0.2-0.3-0.5-0.5-0.9-0.6L65.3,60.8L65.3,60.8z M75,68.9V49.2h3.8v7.9h5.3v-7.9h3.8
	v19.7h-3.8v-8.5h-5.3V69L75,68.9z M91.4,49.2h5.2c1,0,1.9,0.1,2.9,0.4c0.8,0.2,1.5,0.6,2.1,1.2c0.6,0.6,1.1,1.3,1.4,2.1
	c0.3,1,0.5,2.1,0.5,3.2v6.1c0,1.1-0.2,2.1-0.5,3.1c-0.3,0.8-0.7,1.5-1.4,2.1c-0.6,0.6-1.3,1-2.1,1.2c-0.9,0.3-1.9,0.4-2.9,0.4h-5.2
	V49.2z M95.2,65.6h1.3c0.9,0.1,1.8-0.3,2.4-0.9c0.7-0.9,1-2,0.9-3.1v-5.2c0.1-1.1-0.2-2.1-0.8-3c-0.7-0.7-1.6-1-2.5-0.9h-1.3V65.6z"
	/>
<path class="st1" d="M23.4,0l-9.9,9.9V85l0,0L0,98.9l4.4,5.1H162l4.4-5.1L152.8,85l0,0V9.9L142.7,0 M141.3,3.5l8.1,7.9v70.2H17V11.4
	l7.9-7.9 M57.9,98.9l5.4-8.5H103l5.4,8.5H57.9z M129.4,18l16.8-9.5l-0.4-0.7l-18,10.3h1.6V18z M36.1,70.2l-19.3,11l0.4,0.7
	l20.5-11.7H36.1z"/>
</svg>
