<?xml version="1.0" encoding="utf-8"?>
<!-- Generator: Adobe Illustrator 26.0.1, SVG Export Plug-In . SVG Version: 6.00 Build 0)  -->
<svg version="1.1" id="icon" xmlns="http://www.w3.org/2000/svg" xmlns:xlink="http://www.w3.org/1999/xlink" x="0px" y="0px"
	 viewBox="0 0 160.5 160.8" style="enable-background:new 0 0 160.5 160.8;" xml:space="preserve">
<style type="text/css">
	.st0{display:none;}
	.st1{display:inline;}
	
		.st2{clip-path:url(#SVGID_00000155133382057176609150000012639068616326511744_);fill:url(#SVGID_00000082354826641562147800000000696501286637133991_);}
	.st3{fill:url(#SVGID_00000103954808441432031870000012878996599796075967_);}
</style>
<g class="st0">
	<g class="st1">
		<g>
			<g>
				<defs>
					<polygon id="SVGID_1_" points="-71.3,243.5 -170.1,144.7 -71.3,144.7 					"/>
				</defs>
				<clipPath id="SVGID_00000161589484864035992350000002727654765867062425_">
					<use xlink:href="#SVGID_1_"  style="overflow:visible;"/>
				</clipPath>
				
					<linearGradient id="SVGID_00000024724509155004203360000005716780450603591590_" gradientUnits="userSpaceOnUse" x1="-61.0974" y1="-409.374" x2="-172.2085" y2="-508.0407" gradientTransform="matrix(1 0 0 -1 0 -272.11)">
					<stop  offset="0" style="stop-color:#F3B9FF"/>
					<stop  offset="6.517816e-02" style="stop-color:#E5BFFF"/>
					<stop  offset="0.1395" style="stop-color:#C9CBFF"/>
					<stop  offset="0.2128" style="stop-color:#C6D2FF"/>
					<stop  offset="0.2767" style="stop-color:#BDEDFF"/>
					<stop  offset="0.3435" style="stop-color:#BBFCFC"/>
					<stop  offset="0.4088" style="stop-color:#BBFFF4"/>
					<stop  offset="0.4805" style="stop-color:#C1FFDF"/>
					<stop  offset="0.5531" style="stop-color:#D0FFC5"/>
					<stop  offset="0.6238" style="stop-color:#DFFFC1"/>
					<stop  offset="0.7085" style="stop-color:#FDFCBB"/>
					<stop  offset="0.7776" style="stop-color:#FFE5BF"/>
					<stop  offset="0.8501" style="stop-color:#FFC8C9"/>
					<stop  offset="0.9278" style="stop-color:#FFBDEB"/>
					<stop  offset="1" style="stop-color:#E6C0FF"/>
				</linearGradient>
				
					<path style="clip-path:url(#SVGID_00000161589484864035992350000002727654765867062425_);fill:url(#SVGID_00000024724509155004203360000005716780450603591590_);" d="
					M-102,93.8c-1,1-2.7,1-3.7,0s-1-2.7,0-3.7s2.7-1,3.7,0C-101,91.1-101,92.8-102,93.8L-102,93.8z M-94.9,100.9c-1,1-2.7,1-3.7,0
					s-1-2.7,0-3.7s2.7-1,3.7,0l0,0C-93.9,98.2-93.9,99.9-94.9,100.9z M-87.8,108c-1,1-2.7,1-3.7,0s-1-2.7,0-3.7s2.7-1,3.7,0
					S-86.8,106.9-87.8,108z M-80.8,115.1c-1,1-2.7,1-3.7,0s-1-2.7,0-3.7s2.7-1,3.7,0S-79.8,114-80.8,115.1z M-73.7,122.1
					c-1,1-2.7,1-3.7,0s-1-2.7,0-3.7s2.7-1,3.7,0S-72.7,121-73.7,122.1C-73.7,122-73.7,122-73.7,122.1z M-66.6,129.2
					c-1,1-2.7,1-3.7,0s-1-2.7,0-3.7s2.7-1,3.7,0S-65.6,128.1-66.6,129.2L-66.6,129.2z M-59.6,136.2c-1,1-2.7,1-3.7,0
					c-1-1-1-2.7,0-3.7c1-1,2.7-1,3.7,0C-58.5,133.6-58.5,135.2-59.6,136.2z M-52.5,143.3c-1,1-2.7,1-3.7,0s-1-2.7,0-3.7s2.7-1,3.7,0
					S-51.5,142.3-52.5,143.3z M-45.4,150.4c-1,1-2.7,1-3.7,0s-1-2.7,0-3.7s2.7-1,3.7,0S-44.4,149.3-45.4,150.4L-45.4,150.4z
					 M-111,96.5c1.4,0,2.6,1.2,2.6,2.6s-1.2,2.6-2.6,2.6s-2.6-1.2-2.6-2.6C-113.6,97.6-112.5,96.5-111,96.5z M-119.9,108.1
					c-1-1-1-2.7,0-3.7s2.7-1,3.7,0s1,2.7,0,3.7C-117.2,109.1-118.9,109.1-119.9,108.1z M-125.2,110.6c1.4,0,2.6,1.2,2.6,2.6
					s-1.2,2.6-2.6,2.6s-2.6-1.2-2.6-2.6C-127.8,111.8-126.6,110.6-125.2,110.6z M-134.1,122.2c-1-1-1-2.7,0-3.7s2.7-1,3.7,0
					s1,2.7,0,3.7C-131.4,123.2-133,123.2-134.1,122.2L-134.1,122.2z M-139.3,124.8c1.4,0,2.6,1.2,2.6,2.6s-1.2,2.6-2.6,2.6
					s-2.6-1.2-2.6-2.6C-141.9,125.9-140.7,124.8-139.3,124.8z M-148.2,136.3c-1-1-1-2.7,0-3.7s2.7-1,3.7,0s1,2.7,0,3.7
					S-147.2,137.3-148.2,136.3z M-155.3,143.4c-1-1-1-2.7,0-3.7s2.7-1,3.7,0s1,2.7,0,3.7S-154.2,144.4-155.3,143.4L-155.3,143.4z
					 M-162.4,150.5c-1-1-1-2.7,0-3.7s2.7-1,3.7,0s1,2.7,0,3.7S-161.3,151.5-162.4,150.5C-162.3,150.5-162.4,150.5-162.4,150.5z
					 M-105.8,108.1c-1-1-1-2.7,0-3.7s2.7-1,3.7,0s1,2.7,0,3.7C-103.1,109.1-104.8,109.1-105.8,108.1L-105.8,108.1z M-111,110.6
					c1.4,0,2.6,1.2,2.6,2.6s-1.2,2.6-2.6,2.6s-2.6-1.2-2.6-2.6C-113.6,111.8-112.5,110.6-111,110.6z M-119.9,122.2c-1-1-1-2.7,0-3.7
					s2.7-1,3.7,0s1,2.7,0,3.7C-117.2,123.2-118.9,123.2-119.9,122.2z M-125.2,124.8c1.4,0,2.6,1.2,2.6,2.6s-1.2,2.6-2.6,2.6
					s-2.6-1.2-2.6-2.6C-127.8,125.9-126.6,124.8-125.2,124.8z M-134.1,136.3c-1-1-1-2.7,0-3.7s2.7-1,3.7,0s1,2.7,0,3.7
					C-131.4,137.3-133,137.3-134.1,136.3L-134.1,136.3z M-141.2,143.4c-1-1-1-2.7,0-3.7s2.7-1,3.7,0s1,2.7,0,3.7
					S-140.1,144.4-141.2,143.4z M-148.2,150.5c-1-1-1-2.7,0-3.7s2.7-1,3.7,0s1,2.7,0,3.7S-147.2,151.5-148.2,150.5z M-155.3,157.5
					c-1-1-1-2.7,0-3.7s2.7-1,3.7,0s1,2.7,0,3.7C-152.6,158.6-154.2,158.6-155.3,157.5L-155.3,157.5z M-96.9,110.6
					c1.4,0,2.6,1.2,2.6,2.6s-1.2,2.6-2.6,2.6s-2.6-1.2-2.6-2.6C-99.5,111.8-98.3,110.6-96.9,110.6z M-105.8,122.2c-1-1-1-2.7,0-3.7
					s2.7-1,3.7,0s1,2.7,0,3.7C-103.1,123.2-104.8,123.2-105.8,122.2L-105.8,122.2z M-111,124.8c1.4,0,2.6,1.2,2.6,2.6
					s-1.2,2.6-2.6,2.6s-2.6-1.2-2.6-2.6C-113.6,125.9-112.5,124.8-111,124.8z M-119.9,136.3c-1-1-1-2.7,0-3.7s2.7-1,3.7,0
					s1,2.7,0,3.7C-117.2,137.3-118.9,137.3-119.9,136.3z M-127,143.4c-1-1-1-2.7,0-3.7s2.7-1,3.7,0s1,2.7,0,3.7
					S-126,144.4-127,143.4L-127,143.4z M-134.1,150.5c-1-1-1-2.7,0-3.7s2.7-1,3.7,0s1,2.7,0,3.7C-131.4,151.5-133,151.5-134.1,150.5
					L-134.1,150.5z M-141.2,157.5c-1-1-1-2.7,0-3.7s2.7-1,3.7,0s1,2.7,0,3.7C-138.5,158.6-140.1,158.6-141.2,157.5z M-148.2,164.6
					c-1-1-1-2.7,0-3.7s2.7-1,3.7,0s1,2.7,0,3.7S-147.2,165.6-148.2,164.6z M-91.6,122.2c-1-1-1-2.7,0-3.7s2.7-1,3.7,0s1,2.7,0,3.7
					C-89,123.2-90.6,123.2-91.6,122.2z M-96.9,124.8c1.4,0,2.6,1.2,2.6,2.6s-1.2,2.6-2.6,2.6s-2.6-1.2-2.6-2.6
					C-99.5,125.9-98.3,124.8-96.9,124.8z M-105.8,136.3c-1-1-1-2.7,0-3.7s2.7-1,3.7,0s1,2.7,0,3.7
					C-103.1,137.3-104.8,137.3-105.8,136.3L-105.8,136.3z M-112.8,143.4c-1-1-1-2.7,0-3.7s2.7-1,3.7,0s1,2.7,0,3.7
					C-110.1,144.4-111.8,144.4-112.8,143.4z M-119.9,150.5c-1-1-1-2.7,0-3.7s2.7-1,3.7,0s1,2.7,0,3.7
					C-117.2,151.5-118.9,151.5-119.9,150.5z M-127,157.5c-1-1-1-2.7,0-3.7s2.7-1,3.7,0s1,2.7,0,3.7
					C-124.3,158.6-126,158.6-127,157.5L-127,157.5z M-134.1,164.6c-1-1-1-2.7,0-3.7s2.7-1,3.7,0s1,2.7,0,3.7
					C-131.4,165.6-133,165.6-134.1,164.6L-134.1,164.6z M-141.2,171.7c-1-1-1-2.7,0-3.7s2.7-1,3.7,0s1,2.7,0,3.7
					S-140.1,172.7-141.2,171.7z M-82.7,124.8c1.4,0,2.6,1.2,2.6,2.6s-1.2,2.6-2.6,2.6s-2.6-1.2-2.6-2.6
					C-85.3,125.9-84.2,124.8-82.7,124.8z M-91.6,136.3c-1-1-1-2.7,0-3.7s2.7-1,3.7,0s1,2.7,0,3.7C-89,137.3-90.6,137.3-91.6,136.3z
					 M-98.7,143.4c-1-1-1-2.7,0-3.7s2.7-1,3.7,0s1,2.7,0,3.7S-97.7,144.4-98.7,143.4L-98.7,143.4z M-105.8,150.5c-1-1-1-2.7,0-3.7
					s2.7-1,3.7,0s1,2.7,0,3.7C-103.1,151.5-104.8,151.5-105.8,150.5L-105.8,150.5z M-112.8,157.5c-1-1-1-2.7,0-3.7s2.7-1,3.7,0
					s1,2.7,0,3.7C-110.1,158.6-111.8,158.6-112.8,157.5z M-119.9,164.6c-1-1-1-2.7,0-3.7s2.7-1,3.7,0s1,2.7,0,3.7
					C-117.2,165.6-118.9,165.6-119.9,164.6z M-127,171.7c-1-1-1-2.7,0-3.7s2.7-1,3.7,0s1,2.7,0,3.7S-126,172.7-127,171.7L-127,171.7
					z M-134.1,178.8c-1-1-1-2.7,0-3.7s2.7-1,3.7,0s1,2.7,0,3.7C-131.4,179.8-133,179.8-134.1,178.8L-134.1,178.8z M-77.5,136.3
					c-1-1-1-2.7,0-3.7s2.7-1,3.7,0s1,2.7,0,3.7S-76.4,137.3-77.5,136.3L-77.5,136.3z M-84.6,143.4c-1-1-1-2.7,0-3.7s2.7-1,3.7,0
					s1,2.7,0,3.7S-83.5,144.4-84.6,143.4z M-91.6,150.5c-1-1-1-2.7,0-3.7s2.7-1,3.7,0s1,2.7,0,3.7C-89,151.5-90.6,151.5-91.6,150.5z
					 M-98.7,157.5c-1-1-1-2.7,0-3.7s2.7-1,3.7,0s1,2.7,0,3.7C-96,158.6-97.7,158.6-98.7,157.5L-98.7,157.5z M-105.8,164.6
					c-1-1-1-2.7,0-3.7s2.7-1,3.7,0s1,2.7,0,3.7C-103.1,165.6-104.8,165.6-105.8,164.6L-105.8,164.6z M-112.8,171.7c-1-1-1-2.7,0-3.7
					s2.7-1,3.7,0s1,2.7,0,3.7C-110.1,172.7-111.8,172.7-112.8,171.7z M-119.9,178.8c-1-1-1-2.7,0-3.7s2.7-1,3.7,0s1,2.7,0,3.7
					C-117.2,179.8-118.9,179.8-119.9,178.8z M-127,185.8c-1-1-1-2.7,0-3.7s2.7-1,3.7,0s1,2.7,0,3.7
					C-124.3,186.9-126,186.9-127,185.8L-127,185.8z M-70.4,143.4c-1-1-1-2.7,0-3.7s2.7-1,3.7,0s1,2.7,0,3.7
					C-67.7,144.4-69.4,144.4-70.4,143.4L-70.4,143.4z M-77.5,150.5c-1-1-1-2.7,0-3.7s2.7-1,3.7,0s1,2.7,0,3.7
					S-76.4,151.5-77.5,150.5L-77.5,150.5z M-84.6,157.5c-1-1-1-2.7,0-3.7s2.7-1,3.7,0s1,2.7,0,3.7
					C-81.9,158.6-83.5,158.6-84.6,157.5z M-91.6,164.6c-1-1-1-2.7,0-3.7s2.7-1,3.7,0s1,2.7,0,3.7C-89,165.6-90.6,165.6-91.6,164.6z
					 M-98.7,171.7c-1-1-1-2.7,0-3.7s2.7-1,3.7,0s1,2.7,0,3.7S-97.7,172.7-98.7,171.7L-98.7,171.7z M-105.8,178.8c-1-1-1-2.7,0-3.7
					s2.7-1,3.7,0s1,2.7,0,3.7C-103.1,179.8-104.8,179.8-105.8,178.8L-105.8,178.8z M-112.8,185.8c-1-1-1-2.7,0-3.7s2.7-1,3.7,0
					s1,2.7,0,3.7C-110.1,186.8-111.8,186.8-112.8,185.8z M-119.9,192.9c-1-1-1-2.7,0-3.7s2.7-1,3.7,0s1,2.7,0,3.7
					C-117.2,193.9-118.9,193.9-119.9,192.9z M-63.4,150.5c-1-1-1-2.7,0-3.7s2.7-1,3.7,0s1,2.7,0,3.7S-62.3,151.5-63.4,150.5z
					 M-70.4,157.5c-1-1-1-2.7,0-3.7s2.7-1,3.7,0s1,2.7,0,3.7C-67.7,158.6-69.4,158.6-70.4,157.5L-70.4,157.5z M-77.5,164.6
					c-1-1-1-2.7,0-3.7s2.7-1,3.7,0s1,2.7,0,3.7S-76.4,165.6-77.5,164.6L-77.5,164.6z M-84.6,171.7c-1-1-1-2.7,0-3.7s2.7-1,3.7,0
					s1,2.7,0,3.7S-83.5,172.7-84.6,171.7z M-91.6,178.8c-1-1-1-2.7,0-3.7s2.7-1,3.7,0s1,2.7,0,3.7C-89,179.8-90.6,179.8-91.6,178.8z
					 M-98.7,185.8c-1-1-1-2.7,0-3.7s2.7-1,3.7,0s1,2.7,0,3.7C-96,186.9-97.7,186.9-98.7,185.8L-98.7,185.8z M-105.8,192.9
					c-1-1-1-2.7,0-3.7s2.7-1,3.7,0s1,2.7,0,3.7C-103.1,193.9-104.8,193.9-105.8,192.9L-105.8,192.9z M-112.8,200c-1-1-1-2.7,0-3.7
					s2.7-1,3.7,0s1,2.7,0,3.7C-110.1,201-111.8,201-112.8,200z M-56.3,157.5c-1-1-1-2.7,0-3.7s2.7-1,3.7,0s1,2.7,0,3.7
					C-53.6,158.6-55.3,158.6-56.3,157.5z M-63.4,164.6c-1-1-1-2.7,0-3.7s2.7-1,3.7,0s1,2.7,0,3.7S-62.3,165.6-63.4,164.6z
					 M-70.4,171.7c-1-1-1-2.7,0-3.7s2.7-1,3.7,0s1,2.7,0,3.7C-67.7,172.7-69.4,172.7-70.4,171.7L-70.4,171.7z M-77.5,178.8
					c-1-1-1-2.7,0-3.7s2.7-1,3.7,0s1,2.7,0,3.7S-76.4,179.8-77.5,178.8L-77.5,178.8z M-84.6,185.8c-1-1-1-2.7,0-3.7s2.7-1,3.7,0
					s1,2.7,0,3.7S-83.5,186.8-84.6,185.8z M-91.6,192.9c-1-1-1-2.7,0-3.7s2.7-1,3.7,0s1,2.7,0,3.7C-89,193.9-90.6,193.9-91.6,192.9z
					 M-98.7,200c-1-1-1-2.7,0-3.7s2.7-1,3.7,0s1,2.7,0,3.7S-97.7,201-98.7,200L-98.7,200z M-105.8,207.1c-1-1-1-2.7,0-3.7
					s2.7-1,3.7,0s1,2.7,0,3.7C-103.1,208.1-104.8,208.1-105.8,207.1L-105.8,207.1z M-49.2,164.6c-1-1-1-2.7,0-3.7s2.7-1,3.7,0
					s1,2.7,0,3.7S-48.2,165.6-49.2,164.6L-49.2,164.6z M-56.3,171.7c-1-1-1-2.7,0-3.7s2.7-1,3.7,0s1,2.7,0,3.7
					S-55.3,172.7-56.3,171.7z M-63.4,178.8c-1-1-1-2.7,0-3.7s2.7-1,3.7,0s1,2.7,0,3.7S-62.3,179.8-63.4,178.8z M-70.4,185.8
					c-1-1-1-2.7,0-3.7s2.7-1,3.7,0s1,2.7,0,3.7C-67.7,186.9-69.4,186.9-70.4,185.8L-70.4,185.8z M-77.5,192.9c-1-1-1-2.7,0-3.7
					s2.7-1,3.7,0s1,2.7,0,3.7S-76.4,193.9-77.5,192.9L-77.5,192.9z M-84.6,200c-1-1-1-2.7,0-3.7s2.7-1,3.7,0s1,2.7,0,3.7
					S-83.5,201-84.6,200z M-91.6,207.1c-1-1-1-2.7,0-3.7s2.7-1,3.7,0s1,2.7,0,3.7C-89,208.1-90.6,208.1-91.6,207.1z M-98.7,214.1
					c-1-1-1-2.7,0-3.7s2.7-1,3.7,0s1,2.7,0,3.7S-97.7,215.1-98.7,214.1L-98.7,214.1z M-42.1,171.7c-1-1-1-2.7,0-3.7s2.7-1,3.7,0
					s1,2.7,0,3.7C-39.4,172.7-41.1,172.7-42.1,171.7L-42.1,171.7z M-49.2,178.8c-1-1-1-2.7,0-3.7s2.7-1,3.7,0s1,2.7,0,3.7
					S-48.2,179.8-49.2,178.8L-49.2,178.8z M-56.3,185.8c-1-1-1-2.7,0-3.7s2.7-1,3.7,0s1,2.7,0,3.7S-55.3,186.8-56.3,185.8z
					 M-63.4,192.9c-1-1-1-2.7,0-3.7s2.7-1,3.7,0s1,2.7,0,3.7S-62.3,193.9-63.4,192.9z M-70.4,200c-1-1-1-2.7,0-3.7s2.7-1,3.7,0
					s1,2.7,0,3.7C-67.7,201-69.4,201-70.4,200L-70.4,200z M-77.5,207.1c-1-1-1-2.7,0-3.7s2.7-1,3.7,0s1,2.7,0,3.7
					S-76.4,208.1-77.5,207.1L-77.5,207.1z M-84.6,214.1c-1-1-1-2.7,0-3.7s2.7-1,3.7,0s1,2.7,0,3.7S-83.5,215.1-84.6,214.1z
					 M-91.6,221.2c-1-1-1-2.7,0-3.7s2.7-1,3.7,0s1,2.7,0,3.7C-89,222.2-90.6,222.2-91.6,221.2z M-35.1,178.8c-1-1-1-2.7,0-3.7
					s2.7-1,3.7,0s1,2.7,0,3.7C-32.4,179.8-34,179.8-35.1,178.8z M-42.1,185.8c-1-1-1-2.7,0-3.7s2.7-1,3.7,0s1,2.7,0,3.7
					C-39.4,186.9-41.1,186.9-42.1,185.8L-42.1,185.8z M-49.2,192.9c-1-1-1-2.7,0-3.7s2.7-1,3.7,0s1,2.7,0,3.7
					S-48.2,193.9-49.2,192.9L-49.2,192.9z M-56.3,200c-1-1-1-2.7,0-3.7s2.7-1,3.7,0s1,2.7,0,3.7S-55.3,201-56.3,200z M-63.4,207.1
					c-1-1-1-2.7,0-3.7s2.7-1,3.7,0s1,2.7,0,3.7S-62.3,208.1-63.4,207.1z M-70.4,214.1c-1-1-1-2.7,0-3.7s2.7-1,3.7,0s1,2.7,0,3.7
					C-67.7,215.1-69.4,215.1-70.4,214.1L-70.4,214.1z M-77.5,221.2c-1-1-1-2.7,0-3.7s2.7-1,3.7,0s1,2.7,0,3.7
					S-76.4,222.2-77.5,221.2L-77.5,221.2z M-84.6,228.3c-1-1-1-2.7,0-3.7s2.7-1,3.7,0s1,2.7,0,3.7S-83.5,229.3-84.6,228.3z
					 M-28,185.8c-1-1-1-2.7,0-3.7s2.7-1,3.7,0s1,2.7,0,3.7S-27,186.8-28,185.8z M-42.1,157.5c-1-1-1-2.7,0-3.7s2.7-1,3.7,0
					s1,2.7,0,3.7l0,0C-39.4,158.5-41,158.5-42.1,157.5z M-35,164.5c-1-1-1-2.7,0-3.7s2.7-1,3.7,0s1,2.7,0,3.7
					C-32.3,165.6-33.9,165.6-35,164.5L-35,164.5z M-27.9,171.6c-1-1-1-2.7,0-3.7s2.7-1,3.7,0s1,2.7,0,3.7
					C-25.2,172.6-26.9,172.6-27.9,171.6z M-20.8,178.7c-1-1-1-2.7,0-3.7s2.7-1,3.7,0s1,2.7,0,3.7C-18.1,179.7-19.8,179.7-20.8,178.7
					z M-35.1,192.9c-1-1-1-2.7,0-3.7s2.7-1,3.7,0s1,2.7,0,3.7C-32.4,193.9-34,193.9-35.1,192.9z M-42.1,200c-1-1-1-2.7,0-3.7
					s2.7-1,3.7,0s1,2.7,0,3.7C-39.4,201-41.1,201-42.1,200L-42.1,200z M-49.2,207.1c-1-1-1-2.7,0-3.7s2.7-1,3.7,0s1,2.7,0,3.7
					S-48.2,208.1-49.2,207.1L-49.2,207.1z M-56.3,214.1c-1-1-1-2.7,0-3.7s2.7-1,3.7,0s1,2.7,0,3.7S-55.3,215.1-56.3,214.1z
					 M-63.4,221.2c-1-1-1-2.7,0-3.7s2.7-1,3.7,0s1,2.7,0,3.7S-62.3,222.2-63.4,221.2z M-70.4,228.3c-1-1-1-2.7,0-3.7s2.7-1,3.7,0
					s1,2.7,0,3.7C-67.7,229.3-69.4,229.3-70.4,228.3L-70.4,228.3z M-77.5,235.3c-1-1-1-2.7,0-3.7s2.7-1,3.7,0s1,2.7,0,3.7
					C-74.8,236.4-76.4,236.4-77.5,235.3L-77.5,235.3z"/>
			</g>
		</g>
	</g>
</g>
<linearGradient id="SVGID_00000117666956224229237160000007773208171462673056_" gradientUnits="userSpaceOnUse" x1="131.974" y1="-314.0841" x2="21.7518" y2="-395.8619" gradientTransform="matrix(1 0 0 -1 0 -272.11)">
	<stop  offset="0" style="stop-color:#F3B9FF"/>
	<stop  offset="6.517816e-02" style="stop-color:#E5BFFF"/>
	<stop  offset="0.1395" style="stop-color:#C9CBFF"/>
	<stop  offset="0.2128" style="stop-color:#C6D2FF"/>
	<stop  offset="0.2767" style="stop-color:#BDEDFF"/>
	<stop  offset="0.3435" style="stop-color:#BBFCFC"/>
	<stop  offset="0.4088" style="stop-color:#BBFFF4"/>
	<stop  offset="0.4805" style="stop-color:#C1FFDF"/>
	<stop  offset="0.5531" style="stop-color:#D0FFC5"/>
	<stop  offset="0.6238" style="stop-color:#DFFFC1"/>
	<stop  offset="0.7085" style="stop-color:#FDFCBB"/>
	<stop  offset="0.7776" style="stop-color:#FFE5BF"/>
	<stop  offset="0.8501" style="stop-color:#FFC8C9"/>
	<stop  offset="0.9278" style="stop-color:#FFBDEB"/>
	<stop  offset="1" style="stop-color:#E6C0FF"/>
</linearGradient>
<path style="fill:url(#SVGID_00000117666956224229237160000007773208171462673056_);" d="M129.1,24.3H31.4l-7.1,7.1v97.9l7.1,7.1
	h97.7l7.1-7.1V31.5L129.1,24.3z M129.7,126.1l-3.5,3.5H34.5l-3.5-3.5V34.4l3.5-3.5h91.6l3.5,3.5L129.7,126.1L129.7,126.1z
	 M38.7,36.7c-1-1-1-2.7,0-3.7s2.7-1,3.7,0s1,2.7,0,3.7S39.8,37.7,38.7,36.7C38.8,36.7,38.7,36.7,38.7,36.7z M52.9,36.7
	c-1-1-1-2.7,0-3.7s2.7-1,3.7,0s1,2.7,0,3.7S53.9,37.7,52.9,36.7z M45.8,43.7c-1-1-1-2.7,0-3.7s2.7-1,3.7,0s1,2.7,0,3.7
	C48.5,44.8,46.9,44.8,45.8,43.7L45.8,43.7z M67,36.7c-1-1-1-2.7,0-3.7s2.7-1,3.7,0s1,2.7,0,3.7S68.1,37.7,67,36.7L67,36.7z
	 M59.9,43.7c-1-1-1-2.7,0-3.7s2.7-1,3.7,0c1,1,1,2.7,0,3.7C62.6,44.8,61,44.8,59.9,43.7z M52.9,50.8c-1-1-1-2.7,0-3.7s2.7-1,3.7,0
	s1,2.7,0,3.7S53.9,51.8,52.9,50.8z M81.2,36.7c-1-1-1-2.7,0-3.7s2.7-1,3.7,0s1,2.7,0,3.7C83.9,37.7,82.2,37.7,81.2,36.7z M74.1,43.7
	c-1-1-1-2.7,0-3.7s2.7-1,3.7,0s1,2.7,0,3.7C76.8,44.8,75.1,44.8,74.1,43.7L74.1,43.7z M67,50.8c-1-1-1-2.7,0-3.7s2.7-1,3.7,0
	s1,2.7,0,3.7S68.1,51.8,67,50.8L67,50.8z M59.9,57.9c-1-1-1-2.7,0-3.7s2.7-1,3.7,0c1,1,1,2.7,0,3.7S61,58.9,59.9,57.9z M95.3,36.7
	c-1-1-1-2.7,0-3.7s2.7-1,3.7,0s1,2.7,0,3.7S96.3,37.7,95.3,36.7L95.3,36.7z M88.3,43.7c-1-1-1-2.7,0-3.7s2.7-1,3.7,0s1,2.7,0,3.7
	C91,44.8,89.3,44.8,88.3,43.7z M81.2,50.8c-1-1-1-2.7,0-3.7s2.7-1,3.7,0s1,2.7,0,3.7C83.9,51.8,82.2,51.8,81.2,50.8z M74.1,57.9
	c-1-1-1-2.7,0-3.7s2.7-1,3.7,0s1,2.7,0,3.7S75.1,58.9,74.1,57.9L74.1,57.9z M67,65c-1-1-1-2.7,0-3.7s2.7-1,3.7,0s1,2.7,0,3.7
	S68.1,66,67,65L67,65z M109.5,36.7c-1-1-1-2.7,0-3.7s2.7-1,3.7,0s1,2.7,0,3.7C112.1,37.7,110.5,37.7,109.5,36.7z M102.4,43.7
	c-1-1-1-2.7,0-3.7s2.7-1,3.7,0s1,2.7,0,3.7C105.1,44.8,103.4,44.8,102.4,43.7L102.4,43.7z M95.3,50.8c-1-1-1-2.7,0-3.7s2.7-1,3.7,0
	s1,2.7,0,3.7S96.3,51.8,95.3,50.8L95.3,50.8z M88.3,57.9c-1-1-1-2.7,0-3.7s2.7-1,3.7,0s1,2.7,0,3.7S89.3,58.9,88.3,57.9z M81.2,65
	c-1-1-1-2.7,0-3.7s2.7-1,3.7,0s1,2.7,0,3.7C83.9,66,82.2,66,81.2,65z M74.1,72c-1-1-1-2.7,0-3.7s2.7-1,3.7,0s1,2.7,0,3.7
	C76.8,73.1,75.1,73.1,74.1,72L74.1,72z M123.6,36.7c-1-1-1-2.7,0-3.7s2.7-1,3.7,0c1,1,1,2.7,0,3.7S124.7,37.7,123.6,36.7L123.6,36.7
	z M116.5,43.7c-1-1-1-2.7,0-3.7s2.7-1,3.7,0s1,2.7,0,3.7C119.2,44.8,117.6,44.8,116.5,43.7z M109.5,50.8c-1-1-1-2.7,0-3.7
	s2.7-1,3.7,0s1,2.7,0,3.7C112.1,51.8,110.5,51.8,109.5,50.8z M102.4,57.9c-1-1-1-2.7,0-3.7s2.7-1,3.7,0s1,2.7,0,3.7
	S103.4,58.9,102.4,57.9L102.4,57.9z M95.3,65c-1-1-1-2.7,0-3.7s2.7-1,3.7,0s1,2.7,0,3.7S96.3,66,95.3,65L95.3,65z M88.3,72
	c-1-1-1-2.7,0-3.7s2.7-1,3.7,0s1,2.7,0,3.7S89.3,73,88.3,72z M81.2,79.1c-1-1-1-2.7,0-3.7s2.7-1,3.7,0s1,2.7,0,3.7
	C83.9,80.1,82.2,80.1,81.2,79.1z M123.6,50.8c-1-1-1-2.7,0-3.7s2.7-1,3.7,0c1,1,1,2.7,0,3.7S124.7,51.8,123.6,50.8L123.6,50.8z
	 M116.5,57.9c-1-1-1-2.7,0-3.7s2.7-1,3.7,0s1,2.7,0,3.7S117.6,58.9,116.5,57.9z M109.5,65c-1-1-1-2.7,0-3.7s2.7-1,3.7,0s1,2.7,0,3.7
	C112.1,66,110.5,66,109.5,65z M102.4,72c-1-1-1-2.7,0-3.7s2.7-1,3.7,0s1,2.7,0,3.7C105.1,73.1,103.4,73.1,102.4,72L102.4,72z
	 M95.3,79.1c-1-1-1-2.7,0-3.7s2.7-1,3.7,0s1,2.7,0,3.7S96.3,80.1,95.3,79.1L95.3,79.1z M88.3,86.2c-1-1-1-2.7,0-3.7s2.7-1,3.7,0
	s1,2.7,0,3.7S89.3,87.2,88.3,86.2z M123.6,65c-1-1-1-2.7,0-3.7s2.7-1,3.7,0c1,1,1,2.7,0,3.7S124.7,66,123.6,65L123.6,65z M116.5,72
	c-1-1-1-2.7,0-3.7s2.7-1,3.7,0s1,2.7,0,3.7S117.6,73,116.5,72z M109.5,79.1c-1-1-1-2.7,0-3.7s2.7-1,3.7,0s1,2.7,0,3.7
	C112.1,80.1,110.5,80.1,109.5,79.1z M102.4,86.2c-1-1-1-2.7,0-3.7s2.7-1,3.7,0s1,2.7,0,3.7S103.4,87.2,102.4,86.2L102.4,86.2z
	 M95.3,93.3c-1-1-1-2.7,0-3.7s2.7-1,3.7,0s1,2.7,0,3.7S96.3,94.3,95.3,93.3L95.3,93.3z M123.6,79.1c-1-1-1-2.7,0-3.7s2.7-1,3.7,0
	c1,1,1,2.7,0,3.7S124.7,80.1,123.6,79.1L123.6,79.1z M116.5,86.2c-1-1-1-2.7,0-3.7s2.7-1,3.7,0s1,2.7,0,3.7S117.6,87.2,116.5,86.2z
	 M109.5,93.3c-1-1-1-2.7,0-3.7s2.7-1,3.7,0s1,2.7,0,3.7C112.1,94.3,110.5,94.3,109.5,93.3z M102.4,100.3c-1-1-1-2.7,0-3.7
	s2.7-1,3.7,0s1,2.7,0,3.7S103.4,101.3,102.4,100.3L102.4,100.3z M123.6,93.3c-1-1-1-2.7,0-3.7s2.7-1,3.7,0c1,1,1,2.7,0,3.7
	S124.7,94.3,123.6,93.3L123.6,93.3z M116.5,100.3c-1-1-1-2.7,0-3.7s2.7-1,3.7,0s1,2.7,0,3.7S117.6,101.3,116.5,100.3z M109.5,107.4
	c-1-1-1-2.7,0-3.7s2.7-1,3.7,0s1,2.7,0,3.7C112.1,108.4,110.5,108.4,109.5,107.4z M123.6,107.4c-1-1-1-2.7,0-3.7s2.7-1,3.7,0
	c1,1,1,2.7,0,3.7S124.7,108.4,123.6,107.4L123.6,107.4z M116.5,114.5c-1-1-1-2.7,0-3.7s2.7-1,3.7,0s1,2.7,0,3.7
	S117.6,115.5,116.5,114.5z M123.6,121.5c-1-1-1-2.7,0-3.7s2.7-1,3.7,0c1,1,1,2.7,0,3.7C126.3,122.6,124.7,122.6,123.6,121.5
	L123.6,121.5z"/>
</svg>
