<?xml version="1.0" encoding="utf-8"?>
<!-- Generator: Adobe Illustrator 26.0.1, SVG Export Plug-In . SVG Version: 6.00 Build 0)  -->
<svg version="1.1" id="icon" xmlns="http://www.w3.org/2000/svg" xmlns:xlink="http://www.w3.org/1999/xlink" x="0px" y="0px"
	 viewBox="0 0 127.9 158" style="enable-background:new 0 0 127.9 158;" xml:space="preserve">
<style type="text/css">
	.st0{fill:#FFFFFF;}
	.st1{fill:url(#SVGID_1_);}
</style>
<path class="st0" d="M127.6,5.2c-0.5-1-1.7-1.5-3.4-1.5C120.5,3.6,57,0,56.2,0c-0.3,0-3.4,0.2-4.9,2L0,63.7l3.4,4.6
	c0,0.1,0,0.1,0.1,0.2c0.7,1.2,37.6,61.8,37.9,62.4c2.2,3.7,4.7,4.3,5,4.4h0.3h0.1l0,0l0,0c0.1,0,0.3,0,0.4,0l71.9-8.3
	c0.3,0,0.7-0.1,1-0.3c1.2-0.7,1.6-2.3,0.9-3.5l-15-25.4L86.7,60.7l-4.1,0.2L127.4,8C128,7.2,128,6.1,127.6,5.2z M4.4,62.4L4.4,62.4
	c0.6,0.5,1,1.1,1.2,1.7c-0.3,0.5-0.7,1-1.1,1.4l-1.3-1.7L4.4,62.4z M7.2,66c0.1-0.1,0.1-0.2,0.2-0.3l2.1,4.1L7.2,66
	C7.2,66.1,7.2,66.1,7.2,66z M104.2,99.5l14.6,25.1l-71.5,8.1l-15.9-26.5l-1.4-2.3L10.3,66.2l75-2.9L103,97.2L104.2,99.5z M125.4,6.7
	L79.3,61L7.9,63.7c-0.2-0.8-0.6-1.6-1.1-2.1L53.1,3.7C54,3,55,2.6,56.1,2.6c2.7,0.2,64.3,3.6,68,3.7c0.4-0.1,0.9,0,1.3,0.2
	C125.4,6.6,125.4,6.7,125.4,6.7z"/>
<linearGradient id="SVGID_1_" gradientUnits="userSpaceOnUse" x1="24.5195" y1="102.3962" x2="105.5964" y2="113.4959">
	<stop  offset="0" style="stop-color:#F3B9FF"/>
	<stop  offset="6.517816e-02" style="stop-color:#E5BFFF"/>
	<stop  offset="0.1395" style="stop-color:#C9CBFF"/>
	<stop  offset="0.2128" style="stop-color:#C6D2FF"/>
	<stop  offset="0.2767" style="stop-color:#BDEDFF"/>
	<stop  offset="0.3435" style="stop-color:#BBFCFC"/>
	<stop  offset="0.4088" style="stop-color:#BBFFF4"/>
	<stop  offset="0.4805" style="stop-color:#C1FFDF"/>
	<stop  offset="0.5531" style="stop-color:#D0FFC5"/>
	<stop  offset="0.6238" style="stop-color:#DFFFC1"/>
	<stop  offset="0.7085" style="stop-color:#FDFCBB"/>
	<stop  offset="0.7776" style="stop-color:#FFE5BF"/>
	<stop  offset="0.8501" style="stop-color:#FFC8C9"/>
	<stop  offset="0.9278" style="stop-color:#FFBDEB"/>
	<stop  offset="1" style="stop-color:#E6C0FF"/>
</linearGradient>
<path class="st1" d="M107.1,127.2c0,1-0.4,2-1.2,2.6c-1.3,0.9-3.4,0.1-5.5-1.8l-0.9,0.1c2.5,2.4,5.1,3.4,6.8,2.4
	c1-0.8,1.5-2,1.5-3.3H107.1z M107.7,127.1c2.8,6.6,3,12.6,0.1,15c-4,3.3-12.4-1.6-18.8-10.9c-0.4-0.6-0.8-1.3-1.2-1.9l-1.5,0.2
	c0.5,0.9,1.1,1.7,1.7,2.6c6.9,10,16.2,15,20.8,11.2c3.3-2.7,3.2-9.3,0.4-16.5L107.7,127.1z M105.9,127.3c1.4,4.5,1.2,8.4-0.9,9.8
	c-3,2-8.7-1.7-12.9-8.2L91,129c4.6,7.3,11.1,11.3,14.6,9c2.5-1.6,2.8-5.9,1.3-10.8L105.9,127.3z M54.4,80.1c1-5.2-6.6-11.1-17-13.2
	s-19.6,0.4-20.6,5.6s6.6,11.1,17,13.2S53.5,85.3,54.4,80.1z M34.1,84.5c-9.6-2-16.7-7.2-15.8-11.7s9.4-6.6,19-4.6S54,75.4,53.1,79.9
	S43.8,86.4,34.1,84.5L34.1,84.5z M49.3,78.6c1.1-3.6-3.9-8.2-11.2-10.1S23.8,68,22.7,71.7s3.9,8.2,11.2,10.1S48.1,82.3,49.3,78.6z
	 M34.3,80.9c-6.8-1.8-11.5-5.8-10.6-9s7.3-4.3,14.1-2.5s11.5,5.8,10.6,9S41,82.7,34.3,80.9L34.3,80.9z M45.4,73.4
	c0.7-2.4-2.6-5.5-7.5-6.8s-9.4-0.4-10.1,2s2.6,5.5,7.5,6.8S44.7,75.9,45.4,73.4z M35.4,74.9c-4.5-1.2-7.7-3.9-7-6s4.8-2.8,9.3-1.6
	s7.7,3.9,7,6S39.9,76.1,35.4,74.9L35.4,74.9z M41.9,69.7c0.4-1.3-1.3-2.8-3.9-3.5s-5-0.1-5.4,1.1s1.3,2.8,3.9,3.5
	S41.5,70.9,41.9,69.7z M36.7,70.3c-2.2-0.5-3.7-1.8-3.3-2.8s2.3-1.4,4.5-0.8s3.7,1.8,3.3,2.8S38.9,70.9,36.7,70.3L36.7,70.3z
	 M44.3,156.6c6.1-4.2,3.6-16.6-5.6-27.7S17.1,112.2,11,116.4s-3.6,16.6,5.6,27.7S38.2,160.8,44.3,156.6z M18,143.1
	c-8.5-10.3-11.2-21.6-5.8-25.3s16.6,1.8,25.1,12.1s11.2,21.6,5.8,25.3S26.6,153.4,18,143.1z M40.1,150.6c4.8-2.6,3.7-11.4-2.4-19.7
	S22.8,118,18,120.6s-3.7,11.4,2.4,19.7S35.4,153.2,40.1,150.6z M21.6,139.7c-5.7-7.7-6.9-15.7-2.8-18s12.1,2.1,17.7,9.8
	s6.9,15.7,2.8,18S27.3,147.4,21.6,139.7L21.6,139.7z M41,142.2c3.2-1.7,2.4-7.6-1.6-13.1s-9.8-8.6-13-6.9s-2.4,7.6,1.6,13.1
	S37.8,143.9,41,142.2z M28.8,134.9c-3.7-5.1-4.6-10.5-1.8-12s8,1.4,11.7,6.6c3.7,5.2,4.5,10.5,1.8,12S32.5,140,28.8,134.9z
	 M40.9,135.5c1.7-0.9,1.3-3.9-0.9-6.8s-5.2-4.5-6.9-3.6s-1.3,3.9,0.9,6.8S39.2,136.4,40.9,135.5z M34.7,131.6
	c-1.8-2.4-2.2-4.9-0.9-5.6s3.9,0.7,5.7,3.1c1.8,2.4,2.2,4.9,0.9,5.6S36.4,134,34.7,131.6L34.7,131.6z M95.2,59.8
	c-3.3-4.1-12.9-1.8-21.3,5.1s-12.6,15.8-9.2,19.9s12.9,1.8,21.3-5.1S98.5,63.9,95.2,59.8z M85.2,78.7c-7.8,6.4-16.5,8.7-19.4,5.2
	s1.1-11.6,8.9-18s16.5-8.7,19.4-5.2C97,64.2,93,72.3,85.2,78.7L85.2,78.7z M90.6,63c-2.1-3.2-8.9-2.1-15.2,2.5s-9.7,11-7.7,14.2
	s8.9,2.1,15.2-2.5S92.7,66.2,90.6,63z M82.5,76.4c-5.8,4.3-12.1,5.5-13.9,2.7s1.5-8.5,7.3-12.8s12.1-5.5,13.9-2.7
	S88.3,72.1,82.5,76.4L82.5,76.4z M84.1,62.7c-1.4-2.1-5.9-1.4-10.2,1.6c-4.3,3-6.5,7.2-5.1,9.4S74.7,75.1,79,72S85.5,64.9,84.1,62.7
	z M78.6,71.6c-3.9,2.8-8,3.6-9.3,1.8s1-5.6,4.9-8.5s8.1-3.6,9.3-1.8S82.6,68.8,78.6,71.6L78.6,71.6z M78.9,63.1
	c-0.7-1.1-3.1-0.7-5.2,0.9c-2.1,1.6-3.4,3.9-2.7,5s3.1,0.7,5.2-0.9S79.6,64.2,78.9,63.1z M76,67.6c-1.8,1.4-3.8,1.8-4.3,0.9
	s0.5-2.7,2.3-4.1s3.8-1.8,4.3-0.9C78.8,64.4,77.8,66.3,76,67.6L76,67.6z"/>
</svg>
